<svg width="191" height="64" viewBox="0 0 191 64" fill="none" xmlns="http://www.w3.org/2000/svg">
<rect x="1.09484" y="1.17823" width="188.613" height="61.8142" rx="8.71739" fill="black"/>
<rect x="1.09484" y="1.17823" width="188.613" height="61.8142" rx="8.71739" stroke="#A6A6A6" stroke-width="1.58498"/>
<path d="M39.4585 33.2957C39.4777 31.8377 39.8744 30.4081 40.6116 29.14C41.3489 27.8718 42.4027 26.8063 43.675 26.0427C42.8667 24.9157 41.8004 23.9882 40.5608 23.3339C39.3211 22.6796 37.9423 22.3165 36.5338 22.2735C33.5291 21.9656 30.6163 24.0288 29.0852 24.0288C27.5245 24.0288 25.1671 22.3041 22.6286 22.3551C20.9867 22.4069 19.3864 22.873 17.9839 23.7081C16.5813 24.5432 15.4242 25.7188 14.6254 27.1203C11.165 32.9695 13.7461 41.5658 17.0609 46.2939C18.7194 48.6091 20.6577 51.1953 23.1939 51.1036C25.6757 51.003 26.6026 49.5585 29.5984 49.5585C32.5663 49.5585 33.436 51.1036 36.0236 51.0452C38.6867 51.003 40.3646 48.7198 41.9649 46.3826C43.1565 44.733 44.0735 42.9097 44.6818 40.9805C43.1346 40.3416 41.8142 39.2722 40.8854 37.9056C39.9565 36.5391 39.4603 34.9358 39.4585 33.2957Z" fill="white"/>
<path d="M34.5708 19.164C36.0229 17.4622 36.7383 15.2748 36.565 13.0664C34.3466 13.2939 32.2975 14.329 30.8258 15.9655C30.1063 16.765 29.5552 17.6951 29.2041 18.7026C28.8529 19.7101 28.7086 20.7754 28.7794 21.8374C29.889 21.8485 30.9867 21.6137 31.9899 21.1507C32.9931 20.6876 33.8755 20.0083 34.5708 19.164Z" fill="white"/>
<path d="M58.6154 13.8618H61.896C64.7309 13.8618 66.11 15.5474 66.11 18.6052C66.11 21.6629 64.7169 23.3694 61.896 23.3694H58.6154V13.8618ZM60.1965 15.1922V22.039H61.7219C63.6025 22.039 64.4871 20.9037 64.4871 18.6261C64.4871 16.3345 63.5955 15.1922 61.7219 15.1922H60.1965Z" fill="white"/>
<path d="M71.111 15.8818C73.0334 15.8818 74.3777 17.1285 74.3777 19.1972V20.1515C74.3777 22.2898 73.0334 23.4948 71.111 23.4948C69.1608 23.4948 67.8304 22.3037 67.8304 20.1584V19.2042C67.8304 17.1912 69.1817 15.8818 71.111 15.8818ZM71.118 17.1285C70.0175 17.1285 69.3906 18.048 69.3906 19.2808V20.1027C69.3906 21.3356 69.9757 22.248 71.118 22.248C72.2464 22.248 72.8245 21.3425 72.8245 20.1027V19.2808C72.8245 18.048 72.2185 17.1285 71.118 17.1285Z" fill="white"/>
<path d="M85.7311 16.0071L83.7948 23.3694H82.2206L80.6813 17.9365H80.6395L79.128 23.3694H77.5469L75.527 16.0071H77.1917L78.3758 21.6211H78.4454L79.929 16.0071H81.3848L82.9102 21.6211H82.9798L84.1848 16.0071H85.7311Z" fill="white"/>
<path d="M87.2634 23.3694V16.0071H88.7819V17.3305H88.8585C89.0465 16.7524 89.5829 15.8957 91.0734 15.8957C92.557 15.8957 93.5531 16.7176 93.5531 18.3962V23.3694H92.0068V18.849C92.0068 17.7276 91.4217 17.2121 90.551 17.2121C89.4087 17.2121 88.8097 18.0898 88.8097 19.2808V23.3694H87.2634Z" fill="white"/>
<path d="M95.8934 23.3694V13.3604H97.4397V23.3694H95.8934Z" fill="white"/>
<path d="M102.747 15.8818C104.67 15.8818 106.014 17.1285 106.014 19.1972V20.1515C106.014 22.2898 104.67 23.4948 102.747 23.4948C100.797 23.4948 99.4666 22.3037 99.4666 20.1584V19.2042C99.4666 17.1912 100.818 15.8818 102.747 15.8818ZM102.754 17.1285C101.654 17.1285 101.027 18.048 101.027 19.2808V20.1027C101.027 21.3356 101.612 22.248 102.754 22.248C103.883 22.248 104.461 21.3425 104.461 20.1027V19.2808C104.461 18.048 103.855 17.1285 102.754 17.1285Z" fill="white"/>
<path d="M110.019 23.4809C108.591 23.4809 107.609 22.6032 107.609 21.2311C107.609 19.9286 108.514 19.051 110.214 19.051H112.074V18.3614C112.074 17.5186 111.537 17.1216 110.688 17.1216C109.852 17.1216 109.476 17.4698 109.357 17.9574H107.888C107.978 16.7246 108.904 15.8957 110.736 15.8957C112.31 15.8957 113.613 16.5504 113.613 18.3823V23.3694H112.143V22.4152H112.074C111.746 22.9794 111.105 23.4809 110.019 23.4809ZM110.5 22.2828C111.377 22.2828 112.074 21.6838 112.074 20.8828V20.0888H110.458C109.559 20.0888 109.162 20.5415 109.162 21.1545C109.162 21.9206 109.803 22.2828 110.5 22.2828Z" fill="white"/>
<path d="M118.377 15.9096C119.415 15.9096 120.209 16.3693 120.495 17.1146H120.571V13.3604H122.118V23.3694H120.613V22.1923H120.536C120.314 22.9376 119.429 23.4669 118.356 23.4669C116.664 23.4669 115.563 22.2619 115.563 20.3186V19.0579C115.563 17.1146 116.685 15.9096 118.377 15.9096ZM118.809 17.1773C117.778 17.1773 117.137 17.9435 117.137 19.2808V20.0888C117.137 21.4331 117.785 22.1992 118.844 22.1992C119.889 22.1992 120.571 21.44 120.571 20.1863V19.0719C120.571 17.9365 119.826 17.1773 118.809 17.1773Z" fill="white"/>
<path d="M130.608 15.8818C132.531 15.8818 133.875 17.1285 133.875 19.1972V20.1515C133.875 22.2898 132.531 23.4948 130.608 23.4948C128.658 23.4948 127.328 22.3037 127.328 20.1584V19.2042C127.328 17.1912 128.679 15.8818 130.608 15.8818ZM130.615 17.1285C129.515 17.1285 128.888 18.048 128.888 19.2808V20.1027C128.888 21.3356 129.473 22.248 130.615 22.248C131.743 22.248 132.322 21.3425 132.322 20.1027V19.2808C132.322 18.048 131.716 17.1285 130.615 17.1285Z" fill="white"/>
<path d="M135.867 23.3694V16.0071H137.385V17.3305H137.462C137.65 16.7524 138.186 15.8957 139.677 15.8957C141.161 15.8957 142.157 16.7176 142.157 18.3962V23.3694H140.61V18.849C140.61 17.7276 140.025 17.2121 139.155 17.2121C138.012 17.2121 137.413 18.0898 137.413 19.2808V23.3694H135.867Z" fill="white"/>
<path d="M148.14 16.0559V14.2171H149.651V16.0559H151.302V17.2679H149.651V21.1754C149.651 21.9764 149.951 22.1992 150.78 22.1992C150.988 22.1992 151.267 22.1853 151.385 22.1714V23.3555C151.26 23.3764 150.745 23.4182 150.396 23.4182C148.606 23.4182 148.119 22.7774 148.119 21.3007V17.2679H146.997V16.0559H148.14Z" fill="white"/>
<path d="M153.252 23.3694V13.3604H154.791V17.3305H154.868C155.028 16.8081 155.627 15.8957 157.104 15.8957C158.539 15.8957 159.563 16.7246 159.563 18.4032V23.3694H158.023V18.8559C158.023 17.7345 157.403 17.2121 156.526 17.2121C155.418 17.2121 154.791 18.0828 154.791 19.2808V23.3694H153.252Z" fill="white"/>
<path d="M164.752 23.4948C162.746 23.4948 161.499 22.2619 161.499 20.1863V19.1903C161.499 17.1007 162.864 15.8818 164.661 15.8818C166.507 15.8818 167.81 17.1634 167.81 19.1903V20.054H163.031V20.4161C163.031 21.4749 163.658 22.255 164.745 22.255C165.553 22.255 166.11 21.8719 166.214 21.4122H167.726C167.635 22.2619 166.737 23.4948 164.752 23.4948ZM163.031 19.044H166.298V18.9465C166.298 17.839 165.65 17.1007 164.668 17.1007C163.686 17.1007 163.031 17.839 163.031 18.9465V19.044Z" fill="white"/>
<path d="M60.8582 48.7291H57.6403L64.1876 29.714H67.7259L74.2593 48.7291H70.916L69.2304 43.4634H62.5577L60.8582 48.7291ZM65.9707 33.0016H65.8453L63.2682 41.0395H68.52L65.9707 33.0016Z" fill="white"/>
<path d="M83.1404 48.938C81.2319 48.938 79.7831 48.0326 79.003 46.6813H78.8916V53.6187H75.799V34.0046H78.808V36.1638H78.9194C79.7274 34.7568 81.2319 33.8095 83.21 33.8095C86.5115 33.8095 88.8658 36.3031 88.8658 40.7051V42.0146C88.8658 46.3888 86.5394 48.938 83.1404 48.938ZM82.4299 46.3888C84.3941 46.3888 85.7314 44.8146 85.7314 41.8474V40.8166C85.7314 37.9608 84.4777 36.331 82.3742 36.331C80.215 36.331 78.8637 38.0862 78.8637 40.8026V41.8474C78.8637 44.6335 80.2289 46.3888 82.4299 46.3888Z" fill="white"/>
<path d="M98.8613 48.938C96.9528 48.938 95.504 48.0326 94.7239 46.6813H94.6125V53.6187H91.5199V34.0046H94.5289V36.1638H94.6403C95.4483 34.7568 96.9528 33.8095 98.9309 33.8095C102.232 33.8095 104.587 36.3031 104.587 40.7051V42.0146C104.587 46.3888 102.26 48.938 98.8613 48.938ZM98.1508 46.3888C100.115 46.3888 101.452 44.8146 101.452 41.8474V40.8166C101.452 37.9608 100.199 36.331 98.0951 36.331C95.9359 36.331 94.5846 38.0862 94.5846 40.8026V41.8474C94.5846 44.6335 95.9498 46.3888 98.1508 46.3888Z" fill="white"/>
<path d="M110.995 43.4494H114.088C114.227 45.0932 115.676 46.5002 118.365 46.5002C120.83 46.5002 122.293 45.344 122.293 43.547C122.293 42.0982 121.318 41.3181 119.284 40.8305L116.164 40.0504C113.712 39.4792 111.511 38.0165 111.511 34.924C111.511 31.2881 114.687 29.2961 118.379 29.2961C122.07 29.2961 125.149 31.2881 125.218 34.8404H122.182C122.042 33.2245 120.802 31.8871 118.337 31.8871C116.164 31.8871 114.687 32.918 114.687 34.6872C114.687 35.927 115.551 36.8185 117.32 37.2225L120.426 37.9887C123.282 38.6852 125.455 40.0365 125.455 43.2683C125.455 47.0017 122.432 49.1052 118.128 49.1052C112.834 49.1052 111.065 46.0126 110.995 43.4494Z" fill="white"/>
<path d="M129.224 34.0046V30.4244H132.261V34.0046H135.13V36.4842H132.261V44.341C132.261 45.943 132.86 46.3888 134.517 46.3888C134.782 46.3888 135.033 46.3888 135.214 46.3609V48.7291C134.963 48.7709 134.378 48.8266 133.751 48.8266C130.171 48.8266 129.182 47.545 129.182 44.5917V36.4842H127.148V34.0046H129.224Z" fill="white"/>
<path d="M143.482 33.7538C147.717 33.7538 150.015 36.7349 150.015 40.7469V41.931C150.015 46.0823 147.731 48.9798 143.482 48.9798C139.233 48.9798 136.921 46.0823 136.921 41.931V40.7469C136.921 36.7489 139.247 33.7538 143.482 33.7538ZM143.482 36.2334C141.183 36.2334 140.041 38.1141 140.041 40.7887V41.9171C140.041 44.5499 141.17 46.4863 143.482 46.4863C145.794 46.4863 146.909 44.5639 146.909 41.9171V40.7887C146.909 38.1001 145.781 36.2334 143.482 36.2334Z" fill="white"/>
<path d="M152.628 48.7291V34.0046H155.72V35.9409H155.832C156.208 35.0215 157.308 33.7956 159.356 33.7956C159.76 33.7956 160.108 33.8235 160.401 33.8792V36.6096C160.136 36.5399 159.593 36.4981 159.077 36.4981C156.598 36.4981 155.762 38.0305 155.762 40.0086V48.7291H152.628Z" fill="white"/>
<path d="M167.903 48.9798C163.96 48.9798 161.453 46.3748 161.453 42.0146V40.524C161.453 36.4145 163.905 33.7538 167.777 33.7538C171.706 33.7538 174.074 36.5121 174.074 40.6633V42.0703H164.504V42.4186C164.504 44.8982 165.841 46.542 167.945 46.542C169.519 46.542 170.591 45.7619 170.968 44.4942H173.907C173.461 46.8763 171.539 48.9798 167.903 48.9798ZM164.504 39.9111H171.051V39.8832C171.051 37.7937 169.756 36.1499 167.791 36.1499C165.799 36.1499 164.504 37.7937 164.504 39.8832V39.9111Z" fill="white"/>
</svg>
