<svg width="37" height="37" viewBox="0 0 37 37" fill="none" xmlns="http://www.w3.org/2000/svg">
<g clip-path="url(#clip0_1_158)">
<path d="M22.6467 8.74063L31.3219 17.4159C31.6094 17.7035 31.7709 18.0935 31.7709 18.5001C31.7709 18.9067 31.6094 19.2967 31.3219 19.5843L22.6467 28.2596C22.3574 28.5389 21.9701 28.6935 21.568 28.69C21.1659 28.6865 20.7812 28.5252 20.4969 28.2409C20.2126 27.9566 20.0513 27.5719 20.0478 27.1698C20.0443 26.7677 20.1989 26.3804 20.4782 26.0911L26.5357 20.0336H6.22702C5.8203 20.0336 5.43024 19.8721 5.14265 19.5845C4.85505 19.2969 4.69348 18.9068 4.69348 18.5001C4.69348 18.0934 4.85505 17.7033 5.14265 17.4157C5.43024 17.1281 5.8203 16.9666 6.22702 16.9666H26.5357L20.4782 10.9091C20.3318 10.7676 20.2149 10.5984 20.1346 10.4113C20.0542 10.2242 20.0119 10.023 20.0101 9.81933C20.0083 9.61571 20.0472 9.41377 20.1243 9.2253C20.2014 9.03684 20.3152 8.86561 20.4592 8.72163C20.6032 8.57764 20.7744 8.46377 20.9629 8.38666C21.1514 8.30955 21.3533 8.27075 21.5569 8.27252C21.7606 8.27429 21.9618 8.31659 22.1489 8.39696C22.336 8.47734 22.5052 8.59416 22.6467 8.74063Z" fill="white"/>
</g>
<defs>
<clipPath id="clip0_1_158">
<rect width="36.805" height="36.805" fill="white" transform="translate(0.0928955 0.0975342)"/>
</clipPath>
</defs>
</svg>
