<svg width="37" height="37" viewBox="0 0 37 37" fill="none" xmlns="http://www.w3.org/2000/svg">
<g clip-path="url(#clip0_1_153)">
<path d="M14.3534 8.74063L5.67818 17.4159C5.39068 17.7035 5.22918 18.0935 5.22918 18.5001C5.22918 18.9067 5.39068 19.2967 5.67818 19.5843L14.3534 28.2596C14.6427 28.5389 15.03 28.6935 15.4321 28.69C15.8342 28.6865 16.2188 28.5252 16.5032 28.2409C16.7875 27.9566 16.9488 27.5719 16.9523 27.1698C16.9558 26.7677 16.8012 26.3804 16.5219 26.0911L10.4644 20.0336H30.7731C31.1798 20.0336 31.5699 19.8721 31.8574 19.5845C32.145 19.2969 32.3066 18.9068 32.3066 18.5001C32.3066 18.0934 32.145 17.7033 31.8574 17.4157C31.5699 17.1281 31.1798 16.9666 30.7731 16.9666H10.4644L16.5219 10.9091C16.6683 10.7676 16.7852 10.5984 16.8655 10.4113C16.9459 10.2242 16.9882 10.023 16.99 9.81933C16.9917 9.61571 16.9529 9.41377 16.8758 9.2253C16.7987 9.03684 16.6849 8.86561 16.5409 8.72163C16.3969 8.57764 16.2257 8.46377 16.0372 8.38666C15.8487 8.30955 15.6468 8.27075 15.4432 8.27252C15.2395 8.27429 15.0383 8.31659 14.8512 8.39696C14.6641 8.47734 14.4949 8.59416 14.3534 8.74063Z" fill="white"/>
</g>
<defs>
<clipPath id="clip0_1_153">
<rect width="36.805" height="36.805" fill="white" transform="matrix(-1 0 0 1 36.9073 0.0975342)"/>
</clipPath>
</defs>
</svg>
