<svg width="12" height="13" viewBox="0 0 12 13" fill="none" xmlns="http://www.w3.org/2000/svg">
<g clip-path="url(#clip0_1_439)">
<path d="M6.50005 10.6289H2.50005C1.94776 10.6289 1.50005 10.1812 1.50005 9.62891V5.12891H10.5V6.62891M7.50005 2.12891V1.12891M7.50005 2.12891V3.12891M7.50005 2.12891H5.25005" stroke="#787878" stroke-linecap="round" stroke-linejoin="round"/>
<path d="M1.50005 5.12891V3.12891C1.50005 2.57662 1.94776 2.12891 2.50005 2.12891H3.50005" stroke="#787878" stroke-linecap="round" stroke-linejoin="round"/>
<path d="M3.50002 1.12891V3.12891" stroke="#787878" stroke-linecap="round" stroke-linejoin="round"/>
<path d="M10.5 5.12891V3.12891C10.5 2.57662 10.0523 2.12891 9.49998 2.12891H9.24998" stroke="#787878" stroke-linecap="round" stroke-linejoin="round"/>
<path d="M9.50007 11.1289V8.12891M9.50007 8.12891L11.0001 9.62891M9.50007 8.12891L8.00007 9.62891" stroke="#787878" stroke-linecap="round" stroke-linejoin="round"/>
</g>
<defs>
<clipPath id="clip0_1_439">
<rect width="12" height="12" fill="white" transform="translate(0 0.128662)"/>
</clipPath>
</defs>
</svg>
