<svg width="99" height="98" viewBox="0 0 99 98" fill="none" xmlns="http://www.w3.org/2000/svg">
<g clip-path="url(#clip0_1_1405)">
<path d="M64.9559 29.727H55.9871C42.0518 29.727 30.7132 41.0656 30.7132 55.0009V97.2888H35.8174V68.1058H44.7862C58.7215 68.1058 70.0601 56.7671 70.0601 42.8319V0.543945H64.9559V29.727ZM44.7862 63.0016H35.8174V55.0009C35.8174 43.877 44.8672 34.8312 55.9871 34.8312H64.9559V42.8319C64.9559 53.9558 55.9061 63.0016 44.7862 63.0016Z" fill="black"/>
<path d="M40.4963 18.9108C45.56 18.9108 49.6758 14.791 49.6758 9.73137C49.6758 4.67172 45.56 0.547852 40.4963 0.547852C35.4326 0.547852 31.3168 4.66767 31.3168 9.72731C31.3168 14.787 35.4367 18.9068 40.4963 18.9068V18.9108ZM40.4963 5.65205C42.7446 5.65205 44.5756 7.48309 44.5756 9.73137C44.5756 11.9796 42.7446 13.8107 40.4963 13.8107C38.248 13.8107 36.417 11.9796 36.417 9.73137C36.417 7.48309 38.248 5.65205 40.4963 5.65205Z" fill="#A10501"/>
<path d="M9.7455 0.547852C4.68586 0.547852 0.56604 4.66767 0.56604 9.73137C0.56604 14.7951 4.68586 18.9108 9.7455 18.9108C14.8051 18.9108 18.925 14.791 18.925 9.73137C18.925 4.67172 14.8092 0.547852 9.7455 0.547852ZM9.7455 13.8066C7.49722 13.8066 5.66619 11.9756 5.66619 9.72731C5.66619 7.47903 7.49722 5.648 9.7455 5.648C11.9938 5.648 13.8248 7.47903 13.8248 9.72731C13.8248 11.9756 11.9938 13.8066 9.7455 13.8066Z" fill="black"/>
<path d="M9.7455 38.084C4.68181 38.084 0.56604 42.2038 0.56604 47.2634C0.56604 52.3231 4.68586 56.4429 9.7455 56.4429C14.8051 56.4429 18.925 52.3231 18.925 47.2634C18.925 42.2038 14.8051 38.084 9.7455 38.084ZM9.7455 51.3428C7.49722 51.3428 5.66619 49.5117 5.66619 47.2634C5.66619 45.0152 7.49722 43.1841 9.7455 43.1841C11.9938 43.1841 13.8248 45.0152 13.8248 47.2634C13.8248 49.5117 11.9938 51.3428 9.7455 51.3428Z" fill="#A10501"/>
<path d="M9.7455 79.0557C4.68181 79.0557 0.56604 83.1755 0.56604 88.2351C0.56604 93.2948 4.68586 97.4146 9.7455 97.4146C14.8051 97.4146 18.925 93.2948 18.925 88.2351C18.925 83.1755 14.8051 79.0557 9.7455 79.0557ZM9.7455 92.3144C7.49722 92.3144 5.66619 90.4834 5.66619 88.2351C5.66619 85.9868 7.49722 84.1558 9.7455 84.1558C11.9938 84.1558 13.8248 85.9868 13.8248 88.2351C13.8248 90.4834 11.9938 92.3144 9.7455 92.3144Z" fill="black"/>
<path d="M89.4967 18.9108C94.5604 18.9108 98.6762 14.791 98.6762 9.73137C98.6762 4.67172 94.5604 0.547852 89.4967 0.547852C84.433 0.547852 80.3173 4.66767 80.3173 9.72731C80.3173 14.787 84.4371 18.9068 89.4967 18.9068V18.9108ZM89.4967 5.65205C91.745 5.65205 93.576 7.48309 93.576 9.73137C93.576 11.9796 91.745 13.8107 89.4967 13.8107C87.2484 13.8107 85.4174 11.9796 85.4174 9.73137C85.4174 7.48309 87.2484 5.65205 89.4967 5.65205Z" fill="black"/>
<path d="M89.4967 38.084C84.433 38.084 80.3173 42.2038 80.3173 47.2634C80.3173 52.3231 84.4371 56.4429 89.4967 56.4429C94.5564 56.4429 98.6762 52.3231 98.6762 47.2634C98.6762 42.2038 94.5564 38.084 89.4967 38.084ZM89.4967 51.3428C87.2484 51.3428 85.4174 49.5117 85.4174 47.2634C85.4174 45.0152 87.2484 43.1841 89.4967 43.1841C91.745 43.1841 93.576 45.0152 93.576 47.2634C93.576 49.5117 91.745 51.3428 89.4967 51.3428Z" fill="black"/>
<path d="M89.4967 79.0557C84.433 79.0557 80.3173 83.1755 80.3173 88.2351C80.3173 93.2948 84.4371 97.4146 89.4967 97.4146C94.5564 97.4146 98.6762 93.2948 98.6762 88.2351C98.6762 83.1755 94.5564 79.0557 89.4967 79.0557ZM89.4967 92.3144C87.2484 92.3144 85.4174 90.4834 85.4174 88.2351C85.4174 85.9868 87.2484 84.1558 89.4967 84.1558C91.745 84.1558 93.576 85.9868 93.576 88.2351C93.576 90.4834 91.745 92.3144 89.4967 92.3144Z" fill="black"/>
<path d="M60.8766 79.0557C55.8129 79.0557 51.6971 83.1755 51.6971 88.2351C51.6971 93.2948 55.817 97.4146 60.8766 97.4146C65.9362 97.4146 70.0561 93.2948 70.0561 88.2351C70.0561 83.1755 65.9362 79.0557 60.8766 79.0557ZM60.8766 92.3144C58.6283 92.3144 56.7973 90.4834 56.7973 88.2351C56.7973 85.9868 58.6283 84.1558 60.8766 84.1558C63.1249 84.1558 64.9559 85.9868 64.9559 88.2351C64.9559 90.4834 63.1249 92.3144 60.8766 92.3144Z" fill="black"/>
</g>
<defs>
<clipPath id="clip0_1_1405">
<rect width="98.1141" height="96.8745" fill="white" transform="translate(0.56604 0.543945)"/>
</clipPath>
</defs>
</svg>
