<svg width="49" height="49" viewBox="0 0 49 49" fill="none" xmlns="http://www.w3.org/2000/svg">
<rect x="0.501953" y="0.5625" width="47.8745" height="47.8745" rx="23.9373" fill="white" fill-opacity="0.05"/>
<g clip-path="url(#clip0_1_2549)">
<path fill-rule="evenodd" clip-rule="evenodd" d="M15.1059 24.4997C15.1061 22.7035 15.6245 20.9456 16.599 19.4368C17.5735 17.928 18.9626 16.7324 20.5998 15.9935C22.2369 15.2546 24.0524 15.0038 25.8286 15.2712C27.6047 15.5386 29.2659 16.3127 30.613 17.5008C31.96 18.6889 32.9357 20.2405 33.4228 21.9693C33.9099 23.6981 33.8878 25.5308 33.3592 27.2474C32.8306 28.964 31.8179 30.4916 30.4427 31.6469C29.0674 32.8022 27.388 33.5362 25.6059 33.7607V26.833H27.9393C28.2487 26.833 28.5454 26.7101 28.7642 26.4913C28.983 26.2725 29.1059 25.9758 29.1059 25.6663C29.1059 25.3569 28.983 25.0602 28.7642 24.8414C28.5454 24.6226 28.2487 24.4997 27.9393 24.4997H25.6059V22.1663C25.6059 21.8569 25.7288 21.5602 25.9476 21.3414C26.1664 21.1226 26.4632 20.9997 26.7726 20.9997H27.3559C27.6653 20.9997 27.9621 20.8768 28.1809 20.658C28.3997 20.4392 28.5226 20.1424 28.5226 19.833C28.5226 19.5236 28.3997 19.2268 28.1809 19.0081C27.9621 18.7893 27.6653 18.6663 27.3559 18.6663H26.7726C25.8443 18.6663 24.9541 19.0351 24.2977 19.6915C23.6413 20.3478 23.2726 21.2381 23.2726 22.1663V24.4997H20.9392C20.6298 24.4997 20.3331 24.6226 20.1143 24.8414C19.8955 25.0602 19.7726 25.3569 19.7726 25.6663C19.7726 25.9758 19.8955 26.2725 20.1143 26.4913C20.3331 26.7101 20.6298 26.833 20.9392 26.833H23.2726V33.7607C21.0171 33.4763 18.9429 32.3785 17.4393 30.6734C15.9356 28.9683 15.106 26.7731 15.1059 24.4997ZM24.4393 36.1663C30.8828 36.1663 36.1059 30.9432 36.1059 24.4997C36.1059 18.0562 30.8828 12.833 24.4393 12.833C17.9958 12.833 12.7726 18.0562 12.7726 24.4997C12.7726 30.9432 17.9958 36.1663 24.4393 36.1663Z" fill="black"/>
</g>
<defs>
<clipPath id="clip0_1_2549">
<rect width="28" height="28" fill="white" transform="translate(10.4392 10.5)"/>
</clipPath>
</defs>
</svg>
