<svg width="78" height="78" viewBox="0 0 78 78" fill="none" xmlns="http://www.w3.org/2000/svg">
<g clip-path="url(#clip0_1_2125)">
<path d="M47.4967 17.959C46.3415 17.959 45.4041 18.8964 45.4041 20.0516V43.9089C45.4041 45.0641 46.3415 46.0015 47.4967 46.0015C48.652 46.0015 49.5894 45.0641 49.5894 43.9089V20.0516C49.5894 18.8964 48.652 17.959 47.4967 17.959Z" fill="#A10501"/>
<path d="M38.5981 22.5337C37.4429 22.5337 36.5055 23.4711 36.5055 24.6263V58.2602C36.5055 59.4154 37.4429 60.3528 38.5981 60.3528C39.7534 60.3528 40.6907 59.4154 40.6907 58.2602V24.6263C40.6907 23.4711 39.7534 22.5337 38.5981 22.5337Z" fill="black"/>
<path d="M56.402 37.1094C55.2467 37.1094 54.3093 38.0468 54.3093 39.202V49.0446C54.3093 50.1999 55.2467 51.1372 56.402 51.1372C57.5572 51.1372 58.4946 50.1999 58.4946 49.0446V39.202C58.4946 38.0468 57.5572 37.1094 56.402 37.1094Z" fill="black"/>
<path d="M20.7877 37.1094C19.6324 37.1094 18.695 38.0468 18.695 39.202V49.0446C18.695 50.1999 19.6324 51.1372 20.7877 51.1372C21.9429 51.1372 22.8803 50.1999 22.8803 49.0446V39.202C22.8803 38.0468 21.9429 37.1094 20.7877 37.1094Z" fill="#A10501"/>
<path d="M29.6929 17.959C28.5377 17.959 27.6003 18.8964 27.6003 20.0516V43.9089C27.6003 45.0641 28.5377 46.0015 29.6929 46.0015C30.8482 46.0015 31.7856 45.0641 31.7856 43.9089V20.0516C31.7856 18.8964 30.8482 17.959 29.6929 17.959Z" fill="black"/>
<path d="M38.5981 0.418945C17.3153 0.418945 0 17.7343 0 39.017C0 60.2998 17.3153 77.6151 38.5981 77.6151C59.8809 77.6151 77.1962 60.2998 77.1962 39.017C77.1962 17.7343 59.8742 0.418945 38.5981 0.418945ZM38.5981 73.1988C19.7512 73.1988 4.4163 57.8639 4.4163 39.017C4.4163 20.1702 19.7446 4.83525 38.5981 4.83525C57.4516 4.83525 72.7799 20.1702 72.7799 39.017C72.7799 57.8639 57.445 73.1988 38.5981 73.1988Z" fill="black"/>
</g>
<defs>
<clipPath id="clip0_1_2125">
<rect width="77.1896" height="77.1896" fill="white" transform="translate(0 0.418945)"/>
</clipPath>
</defs>
</svg>
