<svg width="121" height="103" viewBox="0 0 121 103" fill="none" xmlns="http://www.w3.org/2000/svg">
<g clip-path="url(#clip0_1_1423)">
<path fill-rule="evenodd" clip-rule="evenodd" d="M97.5523 8.3379C107.27 11.0066 114.415 16.3536 118.099 23.8859L118.109 23.8666C122.866 33.6034 121.184 45.6802 113.39 57.8827C105.781 69.7951 93.1721 80.4602 77.9045 87.9248C64.7835 94.3354 51.0049 97.739 38.4543 97.739C37.7775 97.739 37.1103 97.7293 36.4528 97.71C36.4314 97.7481 36.4097 97.786 36.3877 97.8238C37.215 96.3016 37.5429 94.619 37.6035 93.968C49.7963 94.1227 63.3234 90.8449 76.2318 84.5406H76.2511C106.206 69.9015 123.456 43.437 114.715 25.5393C111.611 19.206 105.568 14.6132 97.2912 12.1862C97.1075 12.8341 96.8464 13.4722 96.508 14.0814C94.052 18.5389 88.4439 20.1633 83.9864 17.7073C81.1437 16.1409 79.4516 13.2885 79.2389 10.2814C68.1 10.7842 56.0619 13.9944 44.5169 19.6412C29.8585 26.806 17.7913 36.9876 10.5491 48.3199C3.48097 59.3717 1.88556 70.1335 6.0433 78.6424C8.63464 83.9314 13.2855 88.0118 19.5705 90.6225C19.4029 91.2835 19.1179 93 19.3191 94.5772C11.5741 91.6571 5.83058 86.7838 2.6591 80.2958C-2.09813 70.559 -0.425368 58.4822 7.35831 46.2797C14.9679 34.3673 27.5765 23.7022 42.8441 16.2376C55.095 10.2524 67.9066 6.89719 79.761 6.47175C79.9254 6.03664 80.1188 5.60152 80.3508 5.18575C82.8068 0.728265 88.4149 -0.896154 92.8724 1.55981C95.5121 3.01986 97.1558 5.57252 97.5523 8.3379Z" fill="black"/>
<path d="M19.3191 94.5772C19.7348 97.3135 21.3689 99.8275 23.9796 101.259C28.3697 103.684 33.881 102.137 36.3877 97.8238C37.215 96.3016 37.5429 94.619 37.6035 93.968C37.8935 90.4581 36.1531 86.9385 32.8656 85.1304C28.4081 82.6744 22.8 84.2989 20.344 88.7563C20.0056 89.3655 19.7542 89.994 19.5705 90.6225C19.4029 91.2835 19.1179 93 19.3191 94.5772Z" fill="#A10501"/>
</g>
<defs>
<clipPath id="clip0_1_1423">
<rect width="120.758" height="102" fill="white" transform="translate(0 0.418945)"/>
</clipPath>
</defs>
</svg>
