<svg width="49" height="49" viewBox="0 0 49 49" fill="none" xmlns="http://www.w3.org/2000/svg">
<rect x="0.376465" y="0.5625" width="47.8745" height="47.8745" rx="23.9373" fill="white" fill-opacity="0.05"/>
<g clip-path="url(#clip0_1_2555)">
<path fill-rule="evenodd" clip-rule="evenodd" d="M28.9804 14C30.5275 14 32.0112 14.6146 33.1052 15.7085C34.1991 16.8025 34.8137 18.2862 34.8137 19.8333V29.1667C34.8137 30.7138 34.1991 32.1975 33.1052 33.2915C32.0112 34.3854 30.5275 35 28.9804 35H19.6471C18.1 35 16.6162 34.3854 15.5223 33.2915C14.4283 32.1975 13.8137 30.7138 13.8137 29.1667V19.8333C13.8137 18.2862 14.4283 16.8025 15.5223 15.7085C16.6162 14.6146 18.1 14 19.6471 14H28.9804ZM28.9804 16.3333H19.6471C18.7188 16.3333 17.8286 16.7021 17.1722 17.3585C16.5158 18.0148 16.1471 18.9051 16.1471 19.8333V29.1667C16.1471 30.0949 16.5158 30.9852 17.1722 31.6415C17.8286 32.2979 18.7188 32.6667 19.6471 32.6667H28.9804C29.9086 32.6667 30.7989 32.2979 31.4553 31.6415C32.1116 30.9852 32.4804 30.0949 32.4804 29.1667V19.8333C32.4804 18.9051 32.1116 18.0148 31.4553 17.3585C30.7989 16.7021 29.9086 16.3333 28.9804 16.3333ZM24.3137 19.8333C25.5514 19.8333 26.7384 20.325 27.6136 21.2002C28.4887 22.0753 28.9804 23.2623 28.9804 24.5C28.9804 25.7377 28.4887 26.9247 27.6136 27.7998C26.7384 28.675 25.5514 29.1667 24.3137 29.1667C23.076 29.1667 21.8891 28.675 21.0139 27.7998C20.1387 26.9247 19.6471 25.7377 19.6471 24.5C19.6471 23.2623 20.1387 22.0753 21.0139 21.2002C21.8891 20.325 23.076 19.8333 24.3137 19.8333ZM24.3137 22.1667C23.6949 22.1667 23.1014 22.4125 22.6638 22.8501C22.2262 23.2877 21.9804 23.8812 21.9804 24.5C21.9804 25.1188 22.2262 25.7123 22.6638 26.1499C23.1014 26.5875 23.6949 26.8333 24.3137 26.8333C24.9326 26.8333 25.5261 26.5875 25.9636 26.1499C26.4012 25.7123 26.6471 25.1188 26.6471 24.5C26.6471 23.8812 26.4012 23.2877 25.9636 22.8501C25.5261 22.4125 24.9326 22.1667 24.3137 22.1667ZM29.5637 18.0833C29.8731 18.0833 30.1699 18.2062 30.3887 18.425C30.6075 18.6438 30.7304 18.9406 30.7304 19.25C30.7304 19.5594 30.6075 19.8562 30.3887 20.075C30.1699 20.2937 29.8731 20.4167 29.5637 20.4167C29.2543 20.4167 28.9576 20.2937 28.7388 20.075C28.52 19.8562 28.3971 19.5594 28.3971 19.25C28.3971 18.9406 28.52 18.6438 28.7388 18.425C28.9576 18.2062 29.2543 18.0833 29.5637 18.0833Z" fill="black"/>
</g>
<defs>
<clipPath id="clip0_1_2555">
<rect width="28" height="28" fill="white" transform="translate(10.3137 10.5)"/>
</clipPath>
</defs>
</svg>
