<svg width="135" height="110" viewBox="0 0 135 110" fill="none" xmlns="http://www.w3.org/2000/svg">
<path opacity="0.2" d="M134.81 81.2965C134.81 90.8243 132.504 97.8933 127.894 102.504C123.591 107.114 116.522 109.419 106.687 109.419C96.8519 109.419 89.6292 107.114 85.0189 102.504C80.716 97.8933 78.5646 90.8243 78.5646 81.2965C78.5646 73.6127 79.333 65.7753 80.8697 57.7842C82.7138 49.7931 85.6336 42.1094 89.6292 34.733C93.6247 27.3566 98.696 20.7486 104.843 14.9089C110.99 8.76194 118.674 3.99803 127.894 0.617188L134.349 9.83767C125.128 17.8288 118.674 25.3588 114.986 32.4279C111.297 39.1895 108.839 46.1049 107.609 53.174C117.137 53.4813 124.052 55.9401 128.355 60.5504C132.658 64.8532 134.81 71.7686 134.81 81.2965ZM56.8964 81.2965C56.8964 90.8243 54.5913 97.8933 49.9811 102.504C45.6782 107.114 38.4555 109.419 28.3129 109.419C18.4777 109.419 11.255 107.114 6.64477 102.504C2.34188 97.8933 0.19043 90.8243 0.19043 81.2965C0.19043 73.6127 1.11248 65.7753 2.95658 57.7842C4.80067 49.7931 7.56682 42.1094 11.255 34.733C15.2506 27.3566 20.3218 20.7486 26.4688 14.9089C32.9232 8.76194 40.6069 3.99803 49.52 0.617188L55.9744 9.83767C47.0612 17.8288 40.7606 25.3588 37.0724 32.4279C33.3842 39.1895 30.9254 46.1049 29.696 53.174C38.9165 53.4813 45.6782 55.9401 49.9811 60.5504C54.5913 64.8532 56.8964 71.7686 56.8964 81.2965Z" fill="white"/>
</svg>
