<svg width="99" height="82" viewBox="0 0 99 82" fill="none" xmlns="http://www.w3.org/2000/svg">
<g clip-path="url(#clip0_1_2135)">
<path d="M84.8854 29.0093L71.7183 37.0886L58.2527 29.0093L45.69 35.8951V51.4493L58.2527 58.9318V74.4861L71.1215 81.9686L84.8854 74.7844V59.5286L98.0449 51.7477V36.1934L84.8854 29.0093Z" fill="black"/>
<path d="M55.2842 8.85665L40.6328 0.869141L27.5039 8.92551L14.0843 0.869141L0.0449219 8.55827V25.788L12.6077 33.2706V48.8401L26.8765 57.1336L42.1171 49.1844V33.875L55.2842 26.0941V8.85665ZM52.4075 24.4491L39.2403 32.2301V47.44L26.953 53.8514L15.4844 47.1875V31.6409L2.92165 24.1507V10.2644L14.0154 4.18962L27.5192 12.2919L40.7246 4.18962L52.4075 10.5628V24.4491Z" fill="#A10501"/>
</g>
<defs>
<clipPath id="clip0_1_2135">
<rect width="98" height="81.0992" fill="white" transform="translate(0.0449219 0.869141)"/>
</clipPath>
</defs>
</svg>
