<svg width="49" height="49" viewBox="0 0 49 49" fill="none" xmlns="http://www.w3.org/2000/svg">
<rect x="0.250977" y="0.5625" width="47.8745" height="47.8745" rx="23.9373" fill="white" fill-opacity="0.05"/>
<g clip-path="url(#clip0_1_2561)">
<path d="M31.1882 14C32.1165 14 33.0067 14.3687 33.6631 15.0251C34.3195 15.6815 34.6882 16.5717 34.6882 17.5V31.5C34.6882 32.4283 34.3195 33.3185 33.6631 33.9749C33.0067 34.6313 32.1165 35 31.1882 35H17.1882C16.26 35 15.3697 34.6313 14.7134 33.9749C14.057 33.3185 13.6882 32.4283 13.6882 31.5V17.5C13.6882 16.5717 14.057 15.6815 14.7134 15.0251C15.3697 14.3687 16.26 14 17.1882 14H31.1882ZM31.1882 16.3333H17.1882C16.8788 16.3333 16.5821 16.4562 16.3633 16.675C16.1445 16.8938 16.0216 17.1906 16.0216 17.5V31.5C16.0216 31.8094 16.1445 32.1062 16.3633 32.325C16.5821 32.5438 16.8788 32.6667 17.1882 32.6667H31.1882C31.4977 32.6667 31.7944 32.5438 32.0132 32.325C32.232 32.1062 32.3549 31.8094 32.3549 31.5V17.5C32.3549 17.1906 32.232 16.8938 32.0132 16.675C31.7944 16.4562 31.4977 16.3333 31.1882 16.3333ZM19.5216 22.1667C19.8073 22.1667 20.0831 22.2716 20.2967 22.4615C20.5102 22.6514 20.6466 22.913 20.6801 23.1968L20.6882 23.3333V29.1667C20.6879 29.464 20.574 29.75 20.3699 29.9663C20.1658 30.1825 19.8868 30.3126 19.5899 30.33C19.2931 30.3475 19.0008 30.2509 18.7728 30.06C18.5447 29.8692 18.3982 29.5984 18.3631 29.3032L18.3549 29.1667V23.3333C18.3549 23.0239 18.4778 22.7272 18.6966 22.5084C18.9154 22.2896 19.2121 22.1667 19.5216 22.1667ZM23.0216 21C23.2948 21 23.5594 21.0958 23.7692 21.2709C23.979 21.4459 24.1207 21.689 24.1696 21.9578C24.4043 21.8217 24.647 21.6998 24.8964 21.5927C25.6746 21.2602 26.8401 21.077 27.8924 21.4072C28.4442 21.5822 28.9984 21.9088 29.4091 22.4653C29.7766 22.9612 29.9749 23.5643 30.0146 24.2422L30.0216 24.5V29.1667C30.0212 29.464 29.9074 29.75 29.7032 29.9663C29.4991 30.1825 29.2201 30.3126 28.9233 30.33C28.6264 30.3475 28.3341 30.2509 28.1061 30.06C27.8781 29.8692 27.7315 29.5984 27.6964 29.3032L27.6882 29.1667V24.5C27.6882 24.115 27.5949 23.9353 27.5342 23.8525C27.4472 23.7442 27.3272 23.6672 27.1924 23.6332C26.7864 23.5048 26.2019 23.5725 25.8134 23.7382C25.2301 23.9878 24.6957 24.3798 24.3317 24.7427L24.1882 24.8967V29.1667C24.1879 29.464 24.074 29.75 23.8699 29.9663C23.6658 30.1825 23.3868 30.3126 23.0899 30.33C22.7931 30.3475 22.5008 30.2509 22.2728 30.06C22.0447 29.8692 21.8982 29.5984 21.8631 29.3032L21.8549 29.1667V22.1667C21.8549 21.8572 21.9778 21.5605 22.1966 21.3417C22.4154 21.1229 22.7121 21 23.0216 21ZM19.5216 18.6667C19.831 18.6667 20.1277 18.7896 20.3465 19.0084C20.5653 19.2272 20.6882 19.5239 20.6882 19.8333C20.6882 20.1428 20.5653 20.4395 20.3465 20.6583C20.1277 20.8771 19.831 21 19.5216 21C19.2121 21 18.9154 20.8771 18.6966 20.6583C18.4778 20.4395 18.3549 20.1428 18.3549 19.8333C18.3549 19.5239 18.4778 19.2272 18.6966 19.0084C18.9154 18.7896 19.2121 18.6667 19.5216 18.6667Z" fill="black"/>
</g>
<defs>
<clipPath id="clip0_1_2561">
<rect width="28" height="28" fill="white" transform="translate(10.1882 10.5)"/>
</clipPath>
</defs>
</svg>
