<svg width="44" height="50" viewBox="0 0 44 50" fill="none" xmlns="http://www.w3.org/2000/svg">
<g clip-path="url(#clip0_1_2577)">
<path d="M31.8036 34.3227C31.9715 34.4313 32.2105 34.4876 32.3211 34.6574C32.2065 34.772 32.0633 34.851 31.9359 34.9478C31.8787 34.7424 31.8352 34.533 31.8036 34.3227Z" fill="#F7F7F7"/>
<path d="M30.3796 35.2628C30.5258 35.166 30.667 35.0495 30.8388 34.9981C31.1677 34.933 31.5014 35.3141 31.3681 35.6272C31.3039 35.8336 31.0936 35.9244 30.9386 36.0508C30.7529 35.7871 30.5682 35.5235 30.3796 35.2628Z" fill="#F7F7F7"/>
<path d="M29.3625 35.9659C29.5491 35.8533 29.7852 35.5857 30.0054 35.7802C30.2345 36.0508 29.8632 36.2621 29.6755 36.4024C29.5709 36.2572 29.4662 36.1101 29.3625 35.9659Z" fill="#F7F7F7"/>
<path d="M27.1861 37.5103C27.3895 37.3602 27.7865 37.0097 27.9346 37.4096C27.9188 37.6693 27.6403 37.7621 27.4734 37.9122C27.3766 37.7779 27.2818 37.6436 27.1861 37.5103Z" fill="#F7F7F7"/>
<path d="M22.8332 40.5983C22.9931 40.4926 23.1462 40.3583 23.3437 40.3287C23.6232 40.3178 23.8779 40.5894 23.8384 40.8698C23.8246 41.1266 23.5659 41.25 23.3842 41.3853C23.2025 41.1206 23.0178 40.8599 22.8332 40.5983Z" fill="#F7F7F7"/>
<path d="M19.29 43.1203C19.4855 43.224 19.6791 43.3376 19.8558 43.4738C19.7107 43.5667 19.5685 43.6634 19.4233 43.7563C19.3809 43.543 19.3344 43.3307 19.29 43.1203Z" fill="#F7F7F7"/>
<path d="M12.7715 47.6954C13.0905 47.5552 13.4657 47.8485 13.4549 48.1842C13.4707 48.5032 13.0658 48.7738 12.7853 48.6039C12.3992 48.4607 12.3568 47.8307 12.7715 47.6954Z" fill="#F7F7F7"/>
<path d="M11.3179 48.7096C11.5006 48.594 11.7208 48.3511 11.9489 48.5121C12.179 48.7856 11.8334 49.0127 11.629 49.146C11.5233 49.0009 11.4196 48.8547 11.3179 48.7096Z" fill="#F7F7F7"/>
<path d="M9.97492 -0.11145C10.1181 -0.0620752 10.2583 0.0001361 10.3808 0.0909861C11.7228 1.04689 13.0569 2.01562 14.4088 2.95869L14.3802 3.00411C14.2992 3.12557 14.2231 3.25 14.1471 3.37442C14.236 3.38331 14.3258 3.3922 14.4157 3.40109C14.4414 3.69536 14.5915 4.02617 14.4177 4.30169C13.9121 5.1618 14.2834 6.20262 13.9615 7.1131C13.8183 7.42219 13.9229 7.75399 13.996 8.06604C14.0405 7.94359 14.0849 7.82114 14.1303 7.70066C14.1274 7.90409 14.1935 8.13417 14.0691 8.3139C13.8479 8.67335 13.6415 9.05255 13.5497 9.4673C13.5171 9.66085 13.6464 9.82379 13.7225 9.98969C13.6336 10.0529 13.5447 10.1161 13.4578 10.1803C13.8153 10.3175 14.158 10.0776 14.5164 10.0934C14.6359 10.2543 14.4592 10.4904 14.2696 10.4133C13.9664 10.3561 13.6583 10.3541 13.4223 10.5832C12.9167 10.3482 12.3953 10.1467 11.8917 9.90773C10.6474 9.31424 9.33897 8.85505 8.12632 8.1954C8.7593 5.4304 9.3597 2.6575 9.97492 -0.11145Z" fill="#A10501"/>
<path d="M14.3802 3.00411C14.6152 3.06929 14.7979 3.2658 15.0043 3.39714C15.9216 4.05679 16.843 4.70952 17.7614 5.36819L17.7762 5.40868C17.8216 5.58248 17.9154 5.73653 18.0329 5.87181C17.9648 5.94193 17.8976 6.01303 17.8305 6.08413C17.9875 6.13449 18.1445 6.18683 18.3005 6.23916C18.183 6.27965 18.0655 6.31915 17.949 6.35964C18.0319 6.95016 17.9648 7.56143 17.7604 8.12232C17.5589 8.69508 17.6567 9.31128 17.6587 9.90476C17.6547 10.2741 17.4029 10.5644 17.2686 10.8913C17.234 11.2507 17.3446 11.6171 17.2498 11.9736C17.001 12.0407 16.7442 11.8511 16.4845 11.9509C16.3779 11.9035 16.2712 11.8571 16.1656 11.8116C15.26 11.3821 14.3219 11.0246 13.4223 10.5832C13.6583 10.3541 13.9664 10.3561 14.2696 10.4133C14.4592 10.4904 14.6359 10.2543 14.5164 10.0934C14.158 10.0776 13.8153 10.3175 13.4578 10.1803C13.5447 10.1161 13.6336 10.0529 13.7225 9.98969C13.6464 9.82379 13.5171 9.66085 13.5497 9.4673C13.6415 9.05255 13.8479 8.67335 14.0691 8.3139C14.1935 8.13418 14.1274 7.90409 14.1303 7.70066C14.0849 7.82114 14.0405 7.94359 13.996 8.06604C13.9229 7.75399 13.8183 7.42219 13.9615 7.1131C14.2834 6.20262 13.9121 5.1618 14.4177 4.30169C14.5915 4.02617 14.4414 3.69536 14.4157 3.40109C14.3258 3.3922 14.236 3.38331 14.1471 3.37442C14.2231 3.25 14.2992 3.12557 14.3802 3.00411Z" fill="#970700"/>
<path d="M0.239151 4.73224C1.5545 5.27339 2.84121 5.88268 4.14866 6.44555C4.76684 6.73291 5.40476 6.97979 6.01306 7.28888C4.72734 7.52291 3.411 7.36294 2.11244 7.41528C1.66806 7.46169 1.23949 7.33924 0.805977 7.27308L0.767463 7.26814C0.612425 6.41889 0.381351 5.58445 0.239151 4.73224Z" fill="#A3A5A4"/>
<path d="M17.7762 5.40868C19.0846 6.2688 20.3298 7.22568 21.6195 8.11542C21.9483 8.34847 22.2831 8.57461 22.5981 8.82741C22.2012 9.14539 22.5013 9.63321 22.3325 10.0371C22.2051 10.4262 22.3187 10.8863 22.0244 11.2122C22.1656 11.2804 22.3078 11.3475 22.45 11.4166C22.1597 11.4314 21.8703 11.4413 21.582 11.467C21.5701 11.5144 21.5464 11.6112 21.5346 11.6586C21.5218 12.4999 21.5336 13.3423 21.5306 14.1836C19.8598 13.4163 18.1514 12.728 16.4845 11.9509C16.7442 11.8511 17.001 12.0407 17.2498 11.9736C17.3446 11.6171 17.234 11.2507 17.2686 10.8913C17.4029 10.5644 17.6547 10.2741 17.6587 9.90477C17.6567 9.31129 17.5589 8.69508 17.7604 8.12233C17.9648 7.56143 18.0319 6.95017 17.949 6.35965C18.0655 6.31916 18.183 6.27966 18.3005 6.23917C18.1445 6.18683 17.9875 6.1345 17.8305 6.08413C17.8976 6.01303 17.9648 5.94193 18.0329 5.87182C17.9154 5.73653 17.8216 5.58248 17.7762 5.40868Z" fill="#900800"/>
<path d="M0.805977 7.27309C1.23949 7.33925 1.66806 7.4617 2.11244 7.41529C3.411 7.36295 4.72734 7.52292 6.01306 7.28889C6.72406 7.57625 7.41137 7.91792 8.12632 8.19541C7.83599 9.44855 7.55357 10.7037 7.28694 11.9617L7.2662 11.9528C5.33268 11.2172 3.32904 10.6701 1.38366 9.96501C1.18221 9.06935 0.961014 8.17764 0.805977 7.27309Z" fill="#9B9E9D"/>
<path d="M8.12632 8.1954C9.33897 8.85505 10.6474 9.31424 11.8917 9.90773C11.7307 9.97291 11.5697 10.0381 11.4088 10.1042C11.5204 10.2879 11.631 10.4716 11.7425 10.6553C11.4888 10.7511 11.1994 10.8093 11.0108 11.0197C10.8508 11.2073 10.5921 11.231 10.3847 11.3386C10.2465 11.4186 10.3018 11.5914 10.3077 11.7198C10.2109 11.7405 10.1142 11.7613 10.0184 11.783C10.0243 11.9736 10.0302 12.1632 10.0361 12.3538C10.0687 12.1977 10.1013 12.0417 10.1339 11.8857C10.2396 11.9933 10.3452 12.101 10.4509 12.2096C10.3926 12.2323 10.2761 12.2777 10.2178 12.3004C10.2652 12.4496 10.3126 12.5987 10.367 12.7458C10.5151 12.8218 10.6415 12.9285 10.7284 13.0737C10.0875 12.9157 9.47129 12.6747 8.83336 12.5019C8.3169 12.3261 7.78365 12.1938 7.28694 11.9617C7.55357 10.7037 7.83599 9.44854 8.12632 8.1954Z" fill="#830400"/>
<path d="M22.5981 8.8274L22.6139 8.80567C23.2351 9.3014 23.9135 9.72306 24.5445 10.2059C24.5494 10.2859 24.5593 10.4459 24.5652 10.5259C24.7311 10.6227 24.899 10.7185 25.0679 10.8123C25.1587 11.0522 25.2703 11.2892 25.3088 11.545C24.823 12.2639 25.0511 13.1744 24.8911 13.9821C24.7795 14.4482 24.7153 14.9361 24.4734 15.3587C24.0162 15.2027 23.6064 14.866 23.1087 14.8571L23.0662 14.8531C23.0662 13.7886 23.0662 12.7241 23.0652 11.6595C22.5547 11.6595 22.0451 11.6615 21.5346 11.6586C21.5464 11.6112 21.5701 11.5144 21.582 11.467C21.8703 11.4413 22.1597 11.4314 22.45 11.4166C22.3078 11.3475 22.1656 11.2803 22.0244 11.2122C22.3187 10.8863 22.2051 10.4262 22.3325 10.0371C22.5014 9.6332 22.2012 9.14537 22.5981 8.8274Z" fill="#860A00"/>
<path d="M0.234215 9.59074C0.614402 9.72406 0.996565 9.84947 1.38366 9.96501C1.61276 10.9811 1.8389 11.9993 2.03048 13.0233C2.01369 13.046 1.97913 13.0904 1.96135 13.1132C1.90309 13.0055 1.84483 12.8989 1.78657 12.7922C1.46662 13.0825 1.03409 13.0203 0.638102 12.9966C0.488002 11.863 0.339877 10.7293 0.234215 9.59074Z" fill="#A2A4A3"/>
<path d="M1.38366 9.965C3.32904 10.6701 5.33268 11.2171 7.2662 11.9528C7.20103 12.3261 7.12005 12.6964 7.03513 13.0657C6.98575 12.9216 6.93736 12.7774 6.88996 12.6342C6.3814 12.6115 5.9232 12.8228 5.46796 13.0124C4.74709 13.0825 4.02029 12.966 3.29941 13.0519C2.95379 13.0964 2.60619 13.1378 2.2576 13.1161C2.23489 13.0519 2.19144 12.9226 2.16971 12.8574C2.14206 12.891 2.08676 12.9561 2.05813 12.9887L2.03048 13.0233C1.8389 11.9992 1.61276 10.9811 1.38366 9.965Z" fill="#6D6D6D"/>
<path d="M11.4088 10.1042C11.5697 10.0381 11.7307 9.97291 11.8917 9.90773C12.3953 10.1467 12.9167 10.3482 13.4223 10.5832C14.3219 11.0246 15.26 11.3821 16.1656 11.8116C16.0145 11.8205 15.8654 11.8343 15.7153 11.8472C15.8002 12.0546 15.7893 12.2817 15.6846 12.4802C15.6027 12.73 15.3183 12.7873 15.1168 12.9078C14.9885 13.282 14.79 13.6267 14.5312 13.9269C14.7455 13.992 14.9588 14.0602 15.1702 14.1372C14.946 14.2715 14.6892 14.3288 14.4305 14.3337C13.685 14.0918 12.9325 13.8725 12.1988 13.596C11.7149 13.4025 11.1895 13.3255 10.7284 13.0737C10.6415 12.9285 10.5151 12.8218 10.367 12.7458C10.3126 12.5987 10.2652 12.4496 10.2178 12.3004C10.2761 12.2777 10.3926 12.2323 10.4509 12.2096C10.3452 12.101 10.2396 11.9933 10.1339 11.8857C10.1013 12.0417 10.0687 12.1977 10.0361 12.3538C10.0302 12.1632 10.0243 11.9736 10.0184 11.783C10.1142 11.7613 10.2109 11.7405 10.3077 11.7198C10.3018 11.5914 10.2465 11.4186 10.3847 11.3386C10.5921 11.231 10.8508 11.2073 11.0108 11.0197C11.1994 10.8093 11.4888 10.7511 11.7425 10.6553C11.631 10.4716 11.5204 10.2879 11.4088 10.1042Z" fill="#790401"/>
<path d="M24.5445 10.2059C25.8687 11.1421 27.1949 12.0782 28.4965 13.044C28.5735 13.2307 28.6979 13.4143 28.7019 13.6237C28.6298 13.8093 28.5133 13.9733 28.4382 14.1569C28.3079 14.9845 28.1252 15.8041 28.1005 16.6464C28.3128 16.7047 28.5261 16.7639 28.7404 16.8232C28.6495 16.9032 28.5587 16.9822 28.4698 17.0622C28.1982 16.9841 27.9227 16.9259 27.6452 16.8795C26.8691 16.5457 26.085 16.2327 25.3197 15.8762C24.587 15.5256 23.794 15.3005 23.1087 14.8571C23.6064 14.866 24.0162 15.2027 24.4734 15.3587C24.7153 14.9361 24.7795 14.4482 24.8911 13.9821C25.0511 13.1744 24.823 12.2639 25.3088 11.545C25.2703 11.2892 25.1587 11.0522 25.0679 10.8123C24.899 10.7185 24.7311 10.6227 24.5652 10.5259C24.5593 10.4459 24.5494 10.2859 24.5445 10.2059Z" fill="#7D0D02"/>
<path d="M21.5346 11.6586C22.0451 11.6615 22.5547 11.6595 23.0652 11.6595C23.0662 12.7241 23.0662 13.7886 23.0662 14.8531C23.0642 15.6411 23.0652 16.4302 23.0662 17.2182C23.0573 20.3278 23.0692 23.4384 23.0642 26.5491C23.161 28.8993 22.215 31.2772 20.474 32.8701C19.2386 34.0353 17.628 34.8006 15.9414 35.006C14.468 35.2252 12.9483 34.9616 11.5855 34.3809C9.87123 33.6018 8.42157 32.24 7.59109 30.5445C6.82577 29.0425 6.60754 27.3085 6.82479 25.6475C7.11511 24.0063 7.86166 22.4361 9.03777 21.2452C10.2702 19.9536 11.945 19.1033 13.7087 18.8406C15.5859 18.578 17.555 18.9552 19.1676 19.9634C20.0958 20.5154 20.869 21.2827 21.5316 22.129C21.5336 20.3041 21.5366 18.4792 21.5306 16.6553C21.5316 15.8307 21.5366 15.0072 21.5306 14.1836C21.5336 13.3422 21.5218 12.4999 21.5346 11.6586ZM13.1685 20.5115C11.5115 20.9529 10.05 22.0708 9.1859 23.551C8.32381 24.9997 8.05126 26.7861 8.44231 28.4263C8.75634 29.8226 9.5572 31.0847 10.6415 32.0119C12.4081 33.4951 14.9569 33.9573 17.1274 33.1683C18.7153 32.6024 20.0711 31.4155 20.8265 29.9066C21.6886 28.2199 21.7676 26.1541 21.0428 24.4042C20.5105 23.0938 19.5448 21.972 18.3371 21.2373C16.8064 20.31 14.8956 20.0316 13.1685 20.5115Z" fill="white"/>
<path d="M24.5415 18.7616C25.0432 18.7686 25.5458 18.7547 26.0475 18.7695C26.0494 18.81 26.0524 18.892 26.0534 18.9325C26.0524 21.5691 26.0573 24.2057 26.0524 26.8414C26.0623 29.0435 25.4184 31.2496 24.188 33.0794C23.9688 33.4211 23.713 33.7361 23.4701 34.06C21.58 36.2888 18.816 37.8046 15.8841 38.007C15.8861 37.6308 15.8861 37.2555 15.8861 36.8803C15.8851 36.7509 15.8861 36.6226 15.8861 36.4942C16.4904 36.428 17.1047 36.3431 17.6656 36.0952C18.3361 35.801 19.0026 35.4948 19.6761 35.2045C20.4641 34.8826 21.1139 34.3069 21.7173 33.7203C23.4839 31.9764 24.505 29.5254 24.5376 27.0448C24.5494 24.2837 24.5396 21.5227 24.5415 18.7616Z" fill="white"/>
<path d="M14.31 26.3101C14.8028 26.0188 15.5217 26.1669 15.7775 26.7031C16.1419 27.3134 15.656 28.1646 14.9598 28.2031C14.4355 28.2634 13.9713 27.8526 13.8588 27.3578C13.8025 26.952 13.9921 26.557 14.31 26.3101Z" fill="white"/>
<path d="M15.7153 11.8472C15.8654 11.8343 16.0145 11.8205 16.1656 11.8116C16.2712 11.8571 16.3779 11.9035 16.4845 11.9509C18.1514 12.728 19.8598 13.4163 21.5306 14.1836C21.5366 15.0072 21.5316 15.8308 21.5306 16.6553C21.423 16.6217 21.3164 16.5892 21.2097 16.5576C20.6212 16.2998 19.9822 16.1981 19.3809 15.9789C18.1455 15.5493 16.9101 15.1138 15.6471 14.7692C15.2314 14.6527 14.8354 14.4808 14.4305 14.3337C14.6892 14.3288 14.946 14.2715 15.1702 14.1372C14.9588 14.0602 14.7455 13.992 14.5312 13.9269C14.79 13.6267 14.9885 13.282 15.1168 12.9078C15.3183 12.7873 15.6027 12.73 15.6846 12.4802C15.7893 12.2817 15.8002 12.0546 15.7153 11.8472Z" fill="#6E0601"/>
<path d="M7.2662 11.9528L7.28694 11.9617C7.78365 12.1938 8.3169 12.3261 8.83336 12.5019C9.47129 12.6747 10.0875 12.9157 10.7284 13.0737C11.1895 13.3255 11.7149 13.4025 12.1988 13.596C11.9312 13.5941 11.6576 13.6316 11.4186 13.757C11.1333 13.8696 11.0957 14.2192 10.9614 14.4581C10.4716 14.5332 10.0776 14.862 9.59473 14.9548C9.55918 15.0605 9.52461 15.1662 9.49104 15.2728C9.27083 15.3094 9.04469 15.3242 8.83435 15.4012C8.7514 15.5256 8.69215 15.6639 8.62599 15.7972C8.51934 15.8268 8.41269 15.8554 8.30703 15.8851C8.44429 15.9414 8.58057 15.9976 8.71882 16.0549C8.51045 16.0855 8.30209 16.1181 8.09471 16.1566C7.93276 16.3719 7.73033 16.5546 7.48444 16.6701C7.55554 16.8104 7.62565 16.9506 7.69675 17.0908C7.27706 17.4157 6.64013 17.0582 6.28759 17.5194C6.21945 17.4631 6.1523 17.4078 6.08515 17.3535C6.1049 17.2478 6.12564 17.1431 6.14736 17.0395C6.45151 15.7162 6.73986 14.39 7.03513 13.0658C7.12005 12.6964 7.20103 12.3261 7.2662 11.9528Z" fill="#650701"/>
<path d="M5.46797 13.0124C5.9232 12.8228 6.3814 12.6115 6.88997 12.6342C6.93737 12.7774 6.98575 12.9216 7.03513 13.0657C6.73987 14.39 6.45152 15.7162 6.14737 17.0394C6.0022 16.7718 6.09305 16.4746 6.1444 16.1971C5.69114 16.1813 5.23788 16.1833 4.7856 16.1981C4.71055 16.2939 4.63649 16.3897 4.56342 16.4864C4.05584 16.4746 3.55222 16.5259 3.0476 16.5714C2.98045 16.3758 2.91232 16.1813 2.83924 15.9887C2.82147 16.0431 2.78493 16.1507 2.76617 16.205C2.65162 15.732 2.5499 15.256 2.4393 14.782C2.3129 14.1846 2.18255 13.5871 2.05813 12.9887C2.08677 12.9561 2.14207 12.891 2.16972 12.8574C2.19144 12.9226 2.23489 13.0519 2.2576 13.1161C2.60619 13.1378 2.95379 13.0964 3.29942 13.0519C4.02029 12.966 4.74709 13.0825 5.46797 13.0124Z" fill="#666566"/>
<path d="M0.6381 12.9966C1.03409 13.0203 1.46661 13.0825 1.78656 12.7922C1.84483 12.8989 1.90309 13.0055 1.96135 13.1132C1.97913 13.0904 2.01369 13.046 2.03048 13.0233L2.05813 12.9887C2.18255 13.5871 2.3129 14.1846 2.4393 14.782C2.42548 14.8363 2.39782 14.944 2.38301 14.9973C2.31784 14.8956 2.25266 14.7949 2.18749 14.6932C1.81915 14.7652 1.43501 14.7731 1.09136 14.941C1.01533 14.8976 0.939287 14.8541 0.86325 14.8107C0.770425 14.2083 0.706237 13.602 0.6381 12.9966Z" fill="#999B9A"/>
<path d="M28.4965 13.044C29.7575 13.9081 30.982 14.8274 32.2401 15.6964L32.2371 15.7113C32.169 15.892 32.1472 16.0835 32.2381 16.2593C32.165 16.3028 32.0939 16.3462 32.0228 16.3907C32.1364 16.9753 31.9962 17.5638 32.006 18.1504C32.005 18.3429 32.1265 18.5019 32.2025 18.6708C31.6239 18.5434 31.1094 18.1988 30.508 18.1691C29.7121 17.8551 28.9408 17.4868 28.1528 17.156C27.978 17.072 27.8121 16.9743 27.6452 16.8795C27.9227 16.9259 28.1982 16.9841 28.4698 17.0622C28.5587 16.9822 28.6495 16.9032 28.7404 16.8232C28.5261 16.7639 28.3128 16.7047 28.1005 16.6464C28.1252 15.8041 28.3078 14.9845 28.4382 14.1569C28.5132 13.9733 28.6298 13.8093 28.7019 13.6237C28.6979 13.4143 28.5735 13.2307 28.4965 13.044Z" fill="#721007"/>
<path d="M11.4186 13.757C11.6576 13.6316 11.9311 13.5941 12.1988 13.596C12.9325 13.8725 13.6849 14.0918 14.4305 14.3337C14.8354 14.4808 15.2314 14.6527 15.6471 14.7692C16.9101 15.1138 18.1455 15.5493 19.3809 15.9789C19.9822 16.1981 20.6211 16.2998 21.2097 16.5576C20.789 16.598 20.4049 16.3768 19.9872 16.3956C19.7393 16.3966 19.4944 16.3462 19.2475 16.3522C18.7291 16.5862 18.6886 17.2152 18.661 17.71C18.5859 17.7169 18.5109 17.7258 18.4368 17.7337C18.4082 17.8285 18.3795 17.9243 18.3509 18.02C18.0191 18.0408 17.6725 17.9805 17.3525 18.0921C17.2577 18.2442 17.2597 18.4308 17.2311 18.6027C16.682 18.8061 16.0964 18.6491 15.5345 18.6096C14.8857 18.4447 14.233 18.6718 13.5803 18.6827C13.6119 18.7222 13.6761 18.8012 13.7087 18.8407C11.945 19.1033 10.2702 19.9536 9.03777 21.2452C7.86166 22.4361 7.11511 24.0063 6.82479 25.6475C6.61445 25.8805 6.57297 26.1985 6.48509 26.4879C6.40707 26.3782 6.32906 26.2686 6.25006 26.16C6.18291 26.2657 6.11576 26.3713 6.0496 26.478C5.98936 26.3753 5.9311 26.2736 5.87185 26.1719C5.78199 26.5629 5.68521 26.954 5.55684 27.3351C5.48376 27.2472 5.41069 27.1594 5.33959 27.0725C5.31095 27.1169 5.25565 27.2068 5.228 27.2512C4.96927 26.3101 4.8962 25.3177 4.5328 24.4062C4.88632 22.6712 5.31391 20.9509 5.66447 19.2149C5.80272 18.5938 5.9627 17.9776 6.08515 17.3535C6.1523 17.4078 6.21945 17.4631 6.28759 17.5194C6.64012 17.0582 7.27706 17.4157 7.69675 17.0908C7.62565 16.9506 7.55554 16.8104 7.48444 16.6701C7.73033 16.5546 7.93276 16.3719 8.09471 16.1566C8.30209 16.1181 8.51045 16.0855 8.71881 16.0549C8.58056 15.9976 8.44429 15.9414 8.30702 15.8851C8.41269 15.8554 8.51934 15.8268 8.62599 15.7972C8.69215 15.6639 8.7514 15.5256 8.83435 15.4012C9.04469 15.3242 9.27082 15.3094 9.49104 15.2728C9.52461 15.1662 9.55918 15.0605 9.59472 14.9548C10.0776 14.862 10.4716 14.5332 10.9614 14.4581C11.0957 14.2192 11.1333 13.8696 11.4186 13.757Z" fill="#560B06"/>
<path d="M1.09136 14.941C1.43501 14.7731 1.81915 14.7652 2.18749 14.6931C2.25266 14.7949 2.31784 14.8956 2.38301 14.9973C2.39783 14.944 2.42548 14.8363 2.4393 14.782C2.5499 15.256 2.65161 15.732 2.76616 16.205C2.78986 16.3235 2.81258 16.443 2.83726 16.5625C2.82541 16.6346 2.8027 16.7778 2.79085 16.8489C2.68815 16.7511 2.61409 16.5141 2.43436 16.6119C2.01764 16.8064 1.55944 16.8686 1.13481 17.0355C1.04298 16.2939 0.946201 15.5533 0.863251 14.8107C0.939288 14.8541 1.01533 14.8976 1.09136 14.941Z" fill="#939493"/>
<path d="M23.0662 14.8531L23.1087 14.8571C23.794 15.3005 24.587 15.5256 25.3197 15.8762C26.085 16.2327 26.8691 16.5457 27.6452 16.8795C27.8121 16.9743 27.978 17.072 28.1528 17.156C28.0294 17.2646 27.9069 17.3722 27.7835 17.4809C27.9336 17.631 28.0837 17.7811 28.2358 17.9312C28.0185 18.0734 27.8279 18.2501 27.6522 18.4407C27.5386 18.6056 27.3184 18.5118 27.1663 18.4664C26.8622 18.3459 26.5462 18.26 26.2223 18.2106C25.6633 18.0309 25.1133 17.8255 24.5524 17.6547C24.0577 17.5075 23.5846 17.2725 23.0662 17.2182C23.0652 16.4302 23.0642 15.6412 23.0662 14.8531Z" fill="#5F0A03"/>
<path d="M32.2371 15.7113C33.3787 16.5092 34.5133 17.3199 35.6371 18.1425C35.643 18.263 35.6469 18.3854 35.6509 18.5079C35.561 18.5108 35.4712 18.5148 35.3823 18.5197C35.2974 18.9829 35.3665 19.5131 35.0456 19.8983C34.7315 19.996 34.4264 19.7264 34.1371 19.6178C33.5969 19.4035 33.0745 19.0678 32.4761 19.0638C32.3744 19.0204 32.2746 18.9769 32.1759 18.9335C31.6209 18.6748 31.0383 18.4782 30.508 18.1692C31.1094 18.1988 31.6239 18.5434 32.2025 18.6708C32.1265 18.5019 32.0051 18.343 32.006 18.1504C31.9962 17.5638 32.1364 16.9753 32.0228 16.3907C32.0939 16.3462 32.165 16.3028 32.2381 16.2593C32.1472 16.0836 32.169 15.892 32.2371 15.7113Z" fill="#67140B"/>
<path d="M2.83924 15.9888C2.91231 16.1813 2.98045 16.3759 3.0476 16.5714C3.55221 16.526 4.05584 16.4746 4.56341 16.4865C4.63649 16.3897 4.71055 16.2939 4.7856 16.1981C5.23788 16.1833 5.69114 16.1813 6.1444 16.1971C6.09305 16.4746 6.0022 16.7718 6.14736 17.0395C6.12564 17.1431 6.1049 17.2478 6.08515 17.3535C5.9627 17.9776 5.80272 18.5938 5.66447 19.2149C5.18554 19.3591 5.24084 19.916 5.12826 20.3091C4.96236 20.3081 4.79745 20.3091 4.63254 20.3101C4.47059 20.553 4.22865 20.709 3.93536 20.7317C3.86426 20.3268 3.77638 19.9249 3.63319 19.5398C3.61443 19.5931 3.57789 19.7018 3.55913 19.7561C3.4821 19.4164 3.40014 19.0786 3.32311 18.7399C3.16709 18.0131 3.01501 17.2844 2.83726 16.5625C2.81258 16.443 2.78986 16.3235 2.76616 16.205C2.78493 16.1507 2.82146 16.0431 2.83924 15.9888Z" fill="#5A5A5C"/>
<path d="M19.2475 16.3522C19.4944 16.3462 19.7393 16.3966 19.9872 16.3956C20.4049 16.3768 20.789 16.598 21.2097 16.5576C21.3164 16.5892 21.423 16.6217 21.5306 16.6553C21.5366 18.4792 21.5336 20.3041 21.5316 22.129C20.869 21.2827 20.0958 20.5155 19.1676 19.9634C17.555 18.9552 15.5859 18.578 13.7087 18.8407C13.6761 18.8012 13.6119 18.7222 13.5803 18.6827C14.233 18.6718 14.8858 18.4447 15.5345 18.6096C16.0964 18.6491 16.682 18.8061 17.2311 18.6027C17.2597 18.4308 17.2577 18.2442 17.3525 18.0921C17.6725 17.9805 18.0191 18.0408 18.3509 18.02C18.3795 17.9243 18.4082 17.8285 18.4368 17.7337C18.5109 17.7258 18.5859 17.7169 18.661 17.71C18.6886 17.2152 18.7291 16.5862 19.2475 16.3522Z" fill="#490F0B"/>
<path d="M1.13481 17.0355C1.55944 16.8686 2.01764 16.8064 2.43436 16.6119C2.61409 16.5141 2.68815 16.7511 2.79085 16.8489C2.8027 16.7778 2.82541 16.6346 2.83726 16.5625C3.01501 17.2844 3.16709 18.0131 3.32311 18.7399C3.31817 18.7824 3.30731 18.8673 3.30238 18.9098C3.24905 18.8871 3.19573 18.8653 3.14339 18.8436C2.64668 19.2307 1.94654 19.0875 1.44489 19.4766C1.32342 18.6659 1.24245 17.8482 1.13481 17.0355Z" fill="#8B8D8C"/>
<path d="M23.0662 17.2182C23.5846 17.2725 24.0577 17.5075 24.5524 17.6547C25.1133 17.8255 25.6633 18.0309 26.2223 18.2106C26.4188 18.4002 26.4958 18.6609 26.5284 18.9236C26.3704 18.9246 26.2114 18.9285 26.0534 18.9325C26.0524 18.892 26.0494 18.81 26.0475 18.7696C25.5458 18.7547 25.0432 18.7686 24.5415 18.7617C24.5395 21.5227 24.5494 24.2838 24.5376 27.0448C24.505 29.5254 23.4839 31.9764 21.7173 33.7203C21.1139 34.3069 20.4641 34.8826 19.6761 35.2045C19.0026 35.4948 18.3361 35.801 17.6656 36.0952C17.1047 36.3431 16.4904 36.428 15.8861 36.4942C15.8861 36.6226 15.8851 36.7509 15.8861 36.8803C15.5148 36.982 15.1573 37.1262 14.8127 37.296C13.288 37.9814 11.7613 38.6647 10.2297 39.3333C10.3462 38.9876 10.364 38.5847 10.6237 38.3063C10.681 38.0801 10.7294 37.8461 10.8587 37.6486C11.0167 37.6298 11.1767 37.6407 11.3357 37.6466C11.4177 37.5271 11.4996 37.4076 11.5816 37.2891C11.39 37.0976 11.1333 37.0186 10.8913 36.9178C10.8331 36.7974 10.8024 36.665 10.7639 36.5386C11.1461 36.2848 11.4236 35.9017 11.8284 35.6815C12.1523 35.5225 12.182 35.1265 12.2748 34.8214C12.0714 34.7493 11.867 34.6811 11.6695 34.5972C11.6487 34.5429 11.6063 34.4353 11.5855 34.3809C12.9483 34.9616 14.468 35.2253 15.9414 35.006C17.628 34.8006 19.2386 34.0353 20.474 32.8701C22.215 31.2772 23.161 28.8993 23.0642 26.5491C23.0692 23.4385 23.0573 20.3278 23.0662 17.2182Z" fill="#3F110C"/>
<path d="M28.1528 17.156C28.9408 17.4868 29.7121 17.8551 30.508 18.1691C31.0383 18.4782 31.6209 18.6748 32.1759 18.9335C32.3082 19.3561 32.0297 19.6978 31.7759 20C32.7704 20.3031 33.747 20.6606 34.7414 20.9657C35.014 21.0497 35.2747 21.1632 35.5344 21.2808C34.9271 21.2679 34.3859 20.948 33.7993 20.8265C32.5975 20.394 31.3681 20.0414 30.1614 19.6198C29.1373 19.2979 28.1301 18.9206 27.0952 18.6313C26.9885 18.7281 26.8829 18.8258 26.7762 18.9236C26.715 18.9236 26.5906 18.9236 26.5284 18.9236C26.4958 18.6609 26.4188 18.4002 26.2222 18.2106C26.5461 18.26 26.8621 18.3459 27.1663 18.4664C27.3184 18.5118 27.5386 18.6056 27.6521 18.4407C27.8279 18.2501 28.0185 18.0734 28.2358 17.9312C28.0837 17.7811 27.9336 17.631 27.7835 17.4809C27.9069 17.3722 28.0294 17.2646 28.1528 17.156Z" fill="#531009"/>
<path d="M35.6371 18.1425C36.6463 18.8298 37.6239 19.5625 38.6292 20.2567C38.2628 20.5135 38.3774 20.9934 38.3152 21.3736C38.2253 21.4328 38.1364 21.4921 38.0476 21.5523C37.7661 21.4081 37.4758 21.2808 37.1845 21.1593C35.6203 20.4483 34.0265 19.8045 32.4761 19.0638C33.0745 19.0678 33.5969 19.4035 34.1371 19.6178C34.4264 19.7264 34.7315 19.996 35.0456 19.8983C35.3665 19.5131 35.2974 18.9828 35.3823 18.5197C35.4712 18.5148 35.561 18.5108 35.6509 18.5079C35.6469 18.3854 35.643 18.263 35.6371 18.1425Z" fill="#60180D"/>
<path d="M26.7762 18.9236C26.8829 18.8258 26.9886 18.7281 27.0952 18.6313C28.1301 18.9206 29.1374 19.2979 30.1614 19.6198C31.3681 20.0415 32.5976 20.394 33.7993 20.8265C33.6522 21.1139 33.5574 21.4259 33.4103 21.7133C33.1229 21.9236 32.7249 21.9957 32.5255 22.3147C32.4198 22.5092 32.4267 22.7403 32.3892 22.9536C32.1423 23.0356 31.7483 22.9961 31.6703 23.3111C31.6081 23.5579 31.4422 23.7436 31.2694 23.9204C31.1795 24.5958 31.2832 25.2841 31.2309 25.9635C31.2269 26.2805 30.824 26.4247 30.8438 26.7495C30.821 27.5731 30.8694 28.3987 30.8368 29.2232C30.8309 29.4553 30.6117 29.5965 30.507 29.7861C30.6127 29.8562 30.7193 29.9273 30.827 29.9984C30.7193 30.0478 30.6117 30.0972 30.506 30.1475C30.511 30.191 30.5218 30.2779 30.5268 30.3213C28.7335 31.1222 26.9372 31.9142 25.1449 32.715C24.8358 32.8622 24.5178 32.9886 24.188 33.0794C25.4184 31.2496 26.0623 29.0435 26.0524 26.8414C26.0573 24.2057 26.0524 21.5691 26.0534 18.9325C26.2114 18.9285 26.3704 18.9246 26.5284 18.9236C26.5906 18.9236 26.715 18.9236 26.7762 18.9236Z" fill="#3C120D"/>
<path d="M3.14339 18.8436C3.19572 18.8653 3.24905 18.8871 3.30237 18.9098C3.30731 18.8673 3.31817 18.7824 3.32311 18.7399C3.40014 19.0786 3.4821 19.4164 3.55912 19.7561C3.80304 20.87 4.04596 21.9839 4.2879 23.0978C4.38368 23.5649 4.55847 24.027 4.50811 24.5129C4.40442 24.2917 4.29975 24.0695 4.1931 23.8502C3.98079 24.0082 3.79119 24.1949 3.6322 24.4072C3.25102 24.3746 2.87182 24.421 2.4946 24.4674C2.29019 24.5138 2.16872 24.3065 2.03541 24.1959C1.81915 22.6257 1.63942 21.0497 1.44489 19.4766C1.94654 19.0875 2.64667 19.2307 3.14339 18.8436Z" fill="#858585"/>
<path d="M32.1759 18.9335C32.2746 18.9769 32.3744 19.0204 32.4761 19.0638C34.0265 19.8044 35.6203 20.4483 37.1845 21.1593C37.0571 21.3262 36.9554 21.5326 36.7589 21.6284C36.3372 21.5652 35.9501 21.3696 35.5344 21.2808C35.2747 21.1632 35.014 21.0497 34.7414 20.9657C33.747 20.6606 32.7704 20.3031 31.776 20C32.0297 19.6978 32.3082 19.3561 32.1759 18.9335Z" fill="#4A100B"/>
<path d="M5.12826 20.3091C5.24084 19.916 5.18554 19.3591 5.66447 19.2149C5.31391 20.9509 4.88632 22.6712 4.5328 24.4062L4.50811 24.5129C4.55847 24.027 4.38369 23.5649 4.2879 23.0978C4.04596 21.9839 3.80304 20.87 3.55912 19.7561C3.57789 19.7018 3.61442 19.5931 3.63319 19.5398C3.77637 19.9249 3.86426 20.3268 3.93536 20.7317C4.22865 20.709 4.47059 20.553 4.63254 20.3101C4.79745 20.3091 4.96236 20.3081 5.12826 20.3091Z" fill="#515151"/>
<path d="M13.1685 20.5115C14.8956 20.0316 16.8064 20.31 18.3371 21.2373C18.2502 21.337 18.1643 21.4368 18.0783 21.5365C18.109 21.6481 18.1396 21.7607 18.1712 21.8733C17.8117 21.9335 17.4503 22.0135 17.1373 22.207C17.1264 22.4263 17.1126 22.6465 17.0968 22.8667C16.7818 23.0602 16.523 23.3318 16.447 23.7051C16.1557 23.709 15.8713 23.7772 15.5869 23.8275C15.5484 23.9845 15.5108 24.1425 15.4733 24.3015C15.2798 24.3302 15.025 24.2719 14.9006 24.4615C14.8087 24.6037 14.6685 24.7864 14.7643 24.9582C14.8887 25.2189 14.946 25.5152 14.8818 25.8015C14.7475 25.9753 14.5105 26.0306 14.3249 26.1373C14.3209 26.1797 14.314 26.2666 14.31 26.3101C13.9921 26.557 13.8025 26.952 13.8588 27.3578C13.8054 27.2166 13.7442 27.0774 13.684 26.9391C13.6603 27.2561 13.7867 27.6432 13.52 27.8881C13.21 28.2594 12.9236 28.6949 12.9424 29.1995C12.7123 29.3713 12.5711 29.6143 12.5167 29.8947C12.1306 29.8246 11.7267 29.8078 11.3782 30.0182C11.392 30.1653 11.3821 30.3184 11.4275 30.4625C11.5391 30.5593 11.6665 30.6353 11.7899 30.7173C11.784 30.7766 11.7732 30.896 11.7672 30.9553C11.3732 31.0175 10.9733 31.1409 10.756 31.5034C10.8044 31.5962 10.8528 31.69 10.9012 31.7838C10.8143 31.8598 10.7274 31.9349 10.6415 32.0119C9.5572 31.0847 8.75634 29.8226 8.44231 28.4263C8.05126 26.7861 8.32381 24.9997 9.1859 23.551C10.05 22.0708 11.5115 20.9529 13.1685 20.5115Z" fill="#480E0A"/>
<path d="M38.3152 21.3736C38.3774 20.9934 38.2628 20.5135 38.6292 20.2567C40.2418 21.4161 41.8662 22.5596 43.4749 23.7258C43.1322 23.9312 42.8034 23.635 42.4903 23.5125C41.0061 22.8667 39.5081 22.2505 38.0476 21.5523C38.1364 21.4921 38.2253 21.4328 38.3152 21.3736Z" fill="#58160E"/>
<path d="M33.7993 20.8265C34.3859 20.948 34.9271 21.268 35.5344 21.2808C35.9501 21.3697 36.3372 21.5652 36.7589 21.6284C36.9554 21.5326 37.0571 21.3262 37.1845 21.1593C37.4758 21.2808 37.7661 21.4082 38.0476 21.5524C39.5081 22.2505 41.0061 22.8667 42.4903 23.5125C42.8034 23.635 43.1322 23.9312 43.4749 23.7258C43.6536 23.8404 43.8314 23.9609 43.9716 24.1238C44.02 24.1544 44.1167 24.2147 44.1641 24.2443C43.935 24.3894 43.7247 24.5711 43.4699 24.6699C43.2379 24.7193 43.0048 24.7696 42.7876 24.8684C38.6983 26.6795 34.618 28.5123 30.5268 30.3214C30.5218 30.2779 30.511 30.191 30.506 30.1476C30.6117 30.0972 30.7193 30.0478 30.827 29.9984C30.7193 29.9273 30.6127 29.8562 30.507 29.7861C30.6117 29.5965 30.8309 29.4553 30.8368 29.2233C30.8694 28.3987 30.821 27.5731 30.8438 26.7496C30.824 26.4247 31.2269 26.2805 31.2308 25.9635C31.2832 25.2841 31.1795 24.5958 31.2694 23.9204C31.4422 23.7436 31.6081 23.558 31.6703 23.3111C31.7483 22.9961 32.1423 23.0356 32.3892 22.9536C32.4267 22.7403 32.4198 22.5092 32.5255 22.3147C32.7249 21.9957 33.1229 21.9237 33.4103 21.7133C33.5574 21.426 33.6522 21.1139 33.7993 20.8265Z" fill="#38170F"/>
<path d="M33.2691 33.0587C33.509 32.9007 33.7282 32.7072 33.985 32.5738L34.1045 32.6124C33.909 32.7871 33.6907 32.9333 33.4764 33.0824C33.5515 33.194 33.6275 33.3046 33.7065 33.4152C33.905 33.273 34.1035 33.1268 34.3277 33.0251C34.2645 33.2858 33.9712 33.3717 33.7885 33.5327C33.8675 33.6453 33.9475 33.7588 34.0284 33.8724C34.2664 33.7411 34.4619 33.4616 34.7542 33.4814C34.536 33.7243 34.2447 33.8793 33.985 34.0709C33.7431 33.7361 33.5061 33.3964 33.2691 33.0587Z" fill="#38170F"/>
<path d="M32.6805 33.4428C32.8168 33.3648 32.9442 33.1969 33.1219 33.2671C33.0064 33.3747 32.8869 33.4754 32.7654 33.5752C32.954 33.8912 33.2384 34.1558 33.3708 34.5024C33.3431 34.5093 33.2878 34.5242 33.2592 34.5311C33.035 34.2526 32.8494 33.9445 32.6331 33.6601C32.4988 33.7519 32.3665 33.8546 32.2016 33.8783C32.2973 33.6729 32.5097 33.5742 32.6805 33.4428Z" fill="#38170F"/>
<path d="M31.6338 34.144C32.1166 34.218 32.4978 34.6051 32.9333 34.8145C32.7723 34.9271 32.6301 34.8076 32.4899 34.7276C32.3053 34.852 32.1245 34.9804 31.9438 35.1097C31.9646 35.1937 32.007 35.3616 32.0278 35.4455C31.9942 35.4662 31.9251 35.5067 31.8915 35.5275C31.8056 35.0663 31.7078 34.6071 31.6338 34.144ZM31.8036 34.3227C31.8352 34.533 31.8787 34.7424 31.9359 34.9478C32.0633 34.851 32.2065 34.772 32.3211 34.6575C32.2105 34.4876 31.9715 34.4313 31.8036 34.3227Z" fill="#38170F"/>
<path d="M30.1831 35.2391C30.3875 35.092 30.584 34.9132 30.8349 34.852C31.2536 34.771 31.6476 35.2263 31.5261 35.6302C31.4323 35.9313 31.1301 36.0795 30.8902 36.2493C30.6581 35.9096 30.4152 35.5778 30.1831 35.2391ZM30.3796 35.2628C30.5682 35.5235 30.7529 35.7872 30.9385 36.0508C31.0936 35.9244 31.3039 35.8336 31.3681 35.6272C31.5014 35.3142 31.1676 34.933 30.8388 34.9982C30.667 35.0495 30.5258 35.166 30.3796 35.2628Z" fill="#38170F"/>
<path d="M29.165 35.959C29.3457 35.804 29.5314 35.639 29.7634 35.567C30.0458 35.4909 30.3233 35.8277 30.2029 36.0913C30.1199 36.2868 29.9175 36.3846 29.7575 36.509C29.8503 36.6493 29.9412 36.7934 30.0044 36.9524C29.6015 36.7668 29.4632 36.2701 29.165 35.959ZM29.3625 35.9659C29.4662 36.1101 29.5709 36.2572 29.6755 36.4024C29.8632 36.2622 30.2345 36.0508 30.0054 35.7803C29.7851 35.5857 29.5491 35.8533 29.3625 35.9659Z" fill="#38170F"/>
<path d="M28.7345 36.2325C28.772 36.2187 28.847 36.192 28.8846 36.1782C29.0475 36.4439 29.2845 36.6739 29.3862 36.9732C29.4731 37.2951 29.1719 37.5775 28.8678 37.6052C28.4244 37.5548 28.2842 37.0571 28.0264 36.7648C28.062 36.7322 28.0985 36.7006 28.136 36.67C28.3266 36.909 28.4737 37.1845 28.6979 37.3958C28.9438 37.5508 29.3151 37.3109 29.2559 37.0206C29.1166 36.7362 28.9092 36.4932 28.7345 36.2325Z" fill="#38170F"/>
<path d="M26.9866 37.4847C27.2137 37.3286 27.423 37.1232 27.6995 37.0591C28.0244 37.0581 28.1893 37.4639 27.976 37.7098C28.1597 37.775 28.3454 37.8382 28.531 37.9024C28.4836 37.9389 28.4372 37.9755 28.3908 38.013C28.2022 37.9468 28.0116 37.8846 27.823 37.8214C27.7331 37.8886 27.6442 37.9547 27.5554 38.0229C27.6275 38.1818 27.8714 38.331 27.7479 38.5235C27.4625 38.2016 27.2374 37.8323 26.9866 37.4847ZM27.186 37.5103C27.2818 37.6437 27.3766 37.778 27.4734 37.9123C27.6403 37.7622 27.9188 37.6693 27.9346 37.4096C27.7864 37.0097 27.3895 37.3602 27.186 37.5103Z" fill="#38170F"/>
<path d="M25.9398 38.1463C26.2598 38.0634 26.4652 37.7079 26.8029 37.7108C26.6271 37.9113 26.4 38.0535 26.1788 38.1977C26.2509 38.3132 26.3249 38.4297 26.4 38.5453C26.6024 38.404 26.795 38.2421 27.033 38.1651C26.9421 38.411 26.6755 38.5038 26.4849 38.6539C26.5639 38.7694 26.6439 38.884 26.7259 39.0005C26.9599 38.8524 27.1594 38.6203 27.4477 38.5838C27.2591 38.8534 26.952 39.0035 26.6864 39.1852C26.4168 38.8553 26.1877 38.4929 25.9398 38.1463Z" fill="#38170F"/>
<path d="M25.6772 38.3892C25.7749 38.4208 25.8727 38.4574 25.9695 38.4959C25.7759 38.484 25.6416 38.6282 25.4905 38.7181C25.6949 39.0518 25.9645 39.3432 26.1344 39.6967C26.088 39.6819 25.9951 39.6513 25.9477 39.6355C25.7394 39.3748 25.5656 39.0864 25.3651 38.8198C25.2249 38.8899 25.0965 39.0874 24.9217 38.9896C25.1528 38.7635 25.4451 38.6144 25.6772 38.3892Z" fill="#38170F"/>
<path d="M24.1258 39.513C24.1722 39.4863 24.2206 39.4607 24.268 39.436C24.4467 39.7204 24.6817 39.9722 24.819 40.2803C24.9494 40.6121 24.3559 40.9715 24.1989 40.617C24.3815 40.5993 24.6531 40.6338 24.6827 40.385C24.5672 40.0551 24.3144 39.8004 24.1258 39.513Z" fill="#38170F"/>
<path d="M22.6337 40.5716C22.8559 40.4235 23.0623 40.2151 23.3397 40.1855C23.7357 40.143 24.0962 40.5766 23.9747 40.9577C23.8967 41.2688 23.5817 41.408 23.3496 41.5878C23.1047 41.254 22.8677 40.9133 22.6337 40.5716ZM22.8332 40.5983C23.0178 40.86 23.2025 41.1207 23.3842 41.3853C23.5659 41.25 23.8246 41.1266 23.8384 40.8698C23.8779 40.5894 23.6231 40.3178 23.3437 40.3287C23.1462 40.3583 22.9931 40.4926 22.8332 40.5983Z" fill="#38170F"/>
<path d="M21.7963 41.1177C22.1389 41.4534 22.5902 41.964 22.2318 42.4548C22.2298 42.2899 22.2387 42.1249 22.2229 41.962C22.1063 41.6865 21.8881 41.4702 21.741 41.2135C21.7548 41.1898 21.7824 41.1424 21.7963 41.1177Z" fill="#38170F"/>
<path d="M20.9865 41.6589C21.2729 41.6243 21.3351 42.0065 21.5119 42.1704C21.6442 42.4577 22.0797 42.4745 22.2051 42.1585C22.1942 42.2336 22.1735 42.3847 22.1636 42.4607C21.9839 42.518 21.7706 42.6108 21.6008 42.4785C21.3361 42.2583 21.1712 41.9433 20.9865 41.6589Z" fill="#38170F"/>
<path d="M20.2953 42.1684C20.4345 42.0835 20.7248 41.8988 20.8048 42.1358C20.5965 42.1793 20.3368 42.2267 20.2439 42.4488C20.0445 42.8034 20.4681 43.3178 20.8562 43.1529C21.0191 43.1036 21.104 42.9436 21.2107 42.8251C21.1485 42.7273 21.0863 42.6305 21.0241 42.5348C20.949 42.5989 20.8799 42.6691 20.8177 42.7461L20.7703 42.8014C20.6705 42.8794 20.6844 42.6641 20.6488 42.6167C20.793 42.5377 20.9322 42.4488 21.0695 42.358C21.1682 42.4953 21.266 42.6325 21.3667 42.7698C21.2482 43.1144 20.8878 43.4354 20.5056 43.3011C20.0366 43.1618 19.8707 42.4557 20.2953 42.1684Z" fill="#38170F"/>
<path d="M19.1794 43.2448C19.1666 43.1421 19.131 43.0255 19.1913 42.9317C19.4974 43.0305 19.7512 43.2398 20.0356 43.386C20.1669 43.4808 20.393 43.5282 20.3763 43.7326C20.2439 43.6714 20.1146 43.6052 19.9872 43.5381C19.8104 43.6615 19.6346 43.7859 19.4628 43.9143C19.4648 44.0634 19.5784 44.2579 19.4194 44.3695C19.3088 44.0012 19.2584 43.619 19.1794 43.2448ZM19.29 43.1203C19.3344 43.3307 19.3809 43.543 19.4233 43.7563C19.5685 43.6635 19.7107 43.5667 19.8558 43.4739C19.6791 43.3376 19.4855 43.224 19.29 43.1203Z" fill="#38170F"/>
<path d="M17.8245 43.9607C17.865 43.9251 17.9055 43.8916 17.946 43.858C18.1544 44.1562 18.3627 44.4535 18.5741 44.7497C18.7755 44.6134 18.974 44.4752 19.1804 44.3478C19.1814 44.3824 19.1824 44.4535 19.1833 44.489C18.9809 44.6638 18.7508 44.802 18.5336 44.9571C18.2976 44.6243 18.0675 44.2876 17.8245 43.9607Z" fill="#38170F"/>
<path d="M16.4648 44.9541C16.4973 44.9117 16.5299 44.8702 16.5625 44.8287C16.7798 45.1279 16.9901 45.4321 17.2064 45.7333C17.4058 45.598 17.6043 45.4587 17.8087 45.3304C17.8097 45.3669 17.8117 45.44 17.8137 45.4755C17.6083 45.6464 17.3792 45.7866 17.1619 45.9406C16.9328 45.6088 16.7008 45.28 16.4648 44.9541Z" fill="#38170F"/>
<path d="M15.6323 45.3916C16.1043 45.517 16.4806 45.8626 16.917 46.0749C16.8726 46.1046 16.8282 46.1362 16.7837 46.1668C16.6593 46.0957 16.5319 46.0305 16.3966 45.9871L16.367 46.15C16.289 46.1065 16.213 46.0631 16.1369 46.0196L16.3611 45.9258C16.1715 45.8044 15.9809 45.6898 15.7873 45.5782C15.8199 45.753 15.8525 45.9308 15.8851 46.1075L15.9819 46.0572C16.0125 46.1589 16.0431 46.2626 16.0727 46.3663L15.9365 46.3218C15.9434 46.4798 16.0866 46.7129 15.89 46.8146C15.7952 46.3416 15.6837 45.8715 15.6323 45.3916Z" fill="#38170F"/>
<path d="M14.3841 46.4828C14.55 46.1391 14.9786 46.0404 15.2116 45.7451C15.2106 45.8044 15.2087 45.9219 15.2077 45.9802C15.1119 46.0424 15.0161 46.1046 14.9213 46.1688C15.1307 46.4699 15.341 46.7701 15.5573 47.0684C15.5108 47.095 15.4644 47.1227 15.419 47.1503C15.2175 46.8561 15.0102 46.5647 14.8068 46.2715C14.6705 46.3495 14.5362 46.4374 14.3841 46.4828Z" fill="#38170F"/>
<path d="M13.365 47.0585C13.6158 46.9133 13.836 46.6506 14.1451 46.6526C14.4522 46.7079 14.5243 47.0703 14.3545 47.3034C14.546 47.3735 14.7791 47.3903 14.9094 47.571C14.6626 47.5828 14.4325 47.4851 14.2044 47.4081C14.1125 47.4713 14.0217 47.5354 13.9318 47.6006C14.0197 47.7606 14.1925 47.9048 14.157 48.1082C13.8252 47.8169 13.6188 47.414 13.365 47.0585ZM13.5615 47.095C13.6573 47.2273 13.7541 47.3616 13.8499 47.4959C14.0414 47.3547 14.2686 47.2313 14.3387 46.9864C14.1362 46.6131 13.7876 46.9321 13.5615 47.095Z" fill="#38170F"/>
<path d="M12.729 47.5572C13.1635 47.3458 13.6879 47.81 13.5901 48.2682C13.5427 48.7195 12.9344 48.9653 12.5878 48.6691C12.1928 48.3995 12.2629 47.7083 12.729 47.5572ZM12.7715 47.6954C12.3568 47.8307 12.3992 48.4607 12.7853 48.6039C13.0658 48.7738 13.4707 48.5032 13.4549 48.1842C13.4657 47.8485 13.0905 47.5552 12.7715 47.6954Z" fill="#38170F"/>
<path d="M11.1184 48.6997C11.3219 48.5427 11.5203 48.3343 11.7889 48.3067C12.0338 48.2899 12.2383 48.5625 12.1691 48.7925C12.101 49.0177 11.8749 49.1234 11.705 49.2596C11.785 49.3732 11.866 49.4897 11.9479 49.6053C11.9193 49.6299 11.864 49.6793 11.8363 49.703C11.5924 49.3722 11.3633 49.0295 11.1184 48.6997ZM11.3179 48.7096C11.4196 48.8548 11.5233 49.0009 11.629 49.1461C11.8334 49.0128 12.179 48.7856 11.9489 48.5121C11.7208 48.3511 11.5006 48.5941 11.3179 48.7096Z" fill="#38170F"/>
<path d="M18.3371 21.2373C19.5448 21.972 20.5106 23.0938 21.0428 24.4042C21.7676 26.1541 21.6886 28.2199 20.8266 29.9066C20.0711 31.4155 18.7153 32.6025 17.1274 33.1683C14.9569 33.9573 12.4081 33.4952 10.6415 32.0119C10.7274 31.9349 10.8143 31.8599 10.9012 31.7838C10.8528 31.69 10.8044 31.5962 10.756 31.5034C10.9733 31.1409 11.3732 31.0175 11.7672 30.9553C11.7732 30.8961 11.784 30.7766 11.7899 30.7173C11.6665 30.6354 11.5391 30.5593 11.4275 30.4625C11.3821 30.3184 11.392 30.1653 11.3782 30.0182C11.7267 29.8078 12.1306 29.8246 12.5167 29.8947C12.5711 29.6143 12.7123 29.3714 12.9424 29.1995C12.9236 28.6949 13.21 28.2594 13.52 27.8881C13.7867 27.6432 13.6603 27.2561 13.684 26.9391C13.7442 27.0774 13.8054 27.2166 13.8588 27.3578C13.9713 27.8526 14.4355 28.2634 14.9598 28.2031C15.656 28.1646 16.1419 27.3134 15.7775 26.7031C15.5217 26.1669 14.8028 26.0188 14.31 26.3101C14.314 26.2666 14.3209 26.1797 14.3249 26.1373C14.5105 26.0306 14.7475 25.9753 14.8818 25.8015C14.946 25.5152 14.8887 25.2189 14.7643 24.9582C14.6685 24.7864 14.8087 24.6037 14.9006 24.4615C15.025 24.2719 15.2798 24.3302 15.4733 24.3015C15.5108 24.1425 15.5484 23.9845 15.5869 23.8275C15.8713 23.7772 16.1557 23.709 16.447 23.7051C16.523 23.3318 16.7818 23.0602 17.0968 22.8667C17.1126 22.6465 17.1264 22.4263 17.1373 22.207C17.4503 22.0135 17.8117 21.9335 18.1712 21.8733C18.1396 21.7607 18.109 21.6481 18.0783 21.5365C18.1643 21.4368 18.2502 21.337 18.3371 21.2373Z" fill="#430F0B"/>
<path d="M3.6322 24.4072C3.79119 24.1949 3.98079 24.0082 4.1931 23.8502C4.29975 24.0695 4.40443 24.2916 4.50812 24.5128C4.14768 25.9763 3.84748 27.4546 3.51074 28.924C3.33102 29.6854 3.20363 30.4625 2.96169 31.2081C2.85899 31.0234 2.85504 30.8101 2.82739 30.6077C2.5657 28.4698 2.28328 26.3348 2.03542 24.1959C2.16873 24.3065 2.29019 24.5138 2.4946 24.4674C2.87183 24.421 3.25103 24.3746 3.6322 24.4072Z" fill="#7D7D7C"/>
<path d="M4.50811 24.5129L4.5328 24.4062C4.8962 25.3177 4.96928 26.3101 5.228 27.2512C5.66941 29.0149 5.98541 30.8101 6.43374 32.5738C6.70431 33.9662 7.0134 35.3517 7.32051 36.7361C7.6612 37.9024 7.77575 39.119 8.12039 40.2842C6.83368 40.8728 5.54301 41.4544 4.24346 42.0123C4.21384 42.0242 4.15459 42.0479 4.12496 42.0597C4.30271 41.7576 4.16347 41.406 4.1378 41.0851C3.91759 39.3036 3.71515 37.5202 3.47025 35.7417C3.43766 35.3556 3.40902 34.9675 3.31817 34.5903C3.23424 33.6127 3.12759 32.636 2.94589 31.6712C2.9291 31.5172 2.93107 31.3602 2.96169 31.2081C3.20362 30.4625 3.33101 29.6854 3.51074 28.924C3.84748 27.4546 4.14767 25.9763 4.50811 24.5129Z" fill="#6C0601"/>
<path d="M42.7876 24.8684C43.0048 24.7696 43.2379 24.7192 43.4699 24.6699C43.1964 25.0135 42.7895 25.2051 42.4568 25.4836L42.4232 25.4905C42.2681 25.5162 42.1151 25.5566 41.9837 25.6435C39.1713 27.4023 36.3619 29.1669 33.5515 30.9306C32.0367 31.8431 30.5584 32.8148 29.0426 33.7262C28.774 33.7618 28.4994 33.7914 28.2338 33.7203C27.9198 33.6393 27.6018 33.7341 27.2868 33.7519C26.6271 33.82 25.9714 33.664 25.3118 33.7302C25.2051 33.746 25.135 33.589 25.0501 33.5988C24.8407 33.9642 24.3865 33.9405 24.0241 34.0235C24.2542 34.0511 24.4843 34.0778 24.7153 34.1015C24.5119 34.1558 24.3095 34.2131 24.107 34.2733C24.028 34.2417 23.949 34.2101 23.871 34.1785C23.8434 34.299 23.8157 34.4185 23.7891 34.5399C23.6607 34.5192 23.5323 34.4994 23.4039 34.4797C23.4345 34.3414 23.4553 34.2002 23.4701 34.06C23.713 33.7361 23.9688 33.4211 24.188 33.0794C24.5178 32.9886 24.8358 32.8622 25.1449 32.715C26.9372 31.9142 28.7335 31.1222 30.5268 30.3213C34.618 28.5122 38.6983 26.6794 42.7876 24.8684Z" fill="#3D3D3F"/>
<path d="M41.9837 25.6435C42.1151 25.5566 42.2681 25.5162 42.4232 25.4905C41.6085 26.1709 40.7039 26.7377 39.8537 27.3727C38.1216 28.6021 36.4103 29.8661 34.6634 31.0738C34.2891 31.0669 33.9139 31.0294 33.5515 30.9306C36.3619 29.1669 39.1713 27.4023 41.9837 25.6435Z" fill="#737373"/>
<path d="M6.48509 26.4879C6.57297 26.1985 6.61445 25.8805 6.82479 25.6475C6.60754 27.3085 6.82578 29.0425 7.59109 30.5445C8.42158 32.24 9.87123 33.6018 11.5855 34.3809C11.6063 34.4353 11.6487 34.5429 11.6695 34.5972C11.867 34.6811 12.0714 34.7493 12.2748 34.8214C12.182 35.1265 12.1524 35.5225 11.8285 35.6815C11.4236 35.9017 11.1461 36.2848 10.7639 36.5386C10.8024 36.665 10.8331 36.7974 10.8913 36.9178C11.1333 37.0186 11.39 37.0976 11.5816 37.2891C11.4996 37.4076 11.4177 37.5271 11.3357 37.6466C11.1767 37.6407 11.0167 37.6298 10.8587 37.6486C10.7294 37.8461 10.681 38.0801 10.6237 38.3063C10.364 38.5847 10.3462 38.9876 10.2297 39.3333C9.53251 39.6631 8.8146 39.9475 8.12039 40.2842C7.77575 39.119 7.6612 37.9024 7.32051 36.7361C7.0134 35.3517 6.70431 33.9662 6.43374 32.5738C5.98541 30.8102 5.66941 29.0149 5.228 27.2512C5.25565 27.2068 5.31095 27.1169 5.33959 27.0725C5.41069 27.1594 5.48376 27.2472 5.55684 27.3351C5.68521 26.954 5.78199 26.5629 5.87185 26.1719C5.9311 26.2736 5.98936 26.3753 6.0496 26.478C6.11576 26.3713 6.18291 26.2657 6.25006 26.16C6.32906 26.2686 6.40707 26.3783 6.48509 26.4879Z" fill="#470C0A"/>
<path d="M29.0426 33.7262C30.5584 32.8148 32.0366 31.8431 33.5515 30.9306C33.9139 31.0294 34.2891 31.0669 34.6634 31.0738C31.2072 33.5712 27.7242 36.035 24.2591 38.5215C24.2038 38.4317 24.1515 38.3438 24.0981 38.2559C23.9392 38.4425 23.795 38.7437 23.5096 38.7329C22.7018 38.6795 21.8921 38.7151 21.0843 38.7249C23.7288 37.0452 26.4 35.4079 29.0426 33.7262Z" fill="#6C6C6C"/>
<path d="M2.46497 33.6601C2.65062 33.0034 2.70889 32.3121 2.94589 31.6712C3.12759 32.636 3.23424 33.6127 3.31817 34.5903C3.13647 34.2407 3.08019 33.8487 3.02587 33.4645C2.83331 33.511 2.6447 33.5751 2.46497 33.6601Z" fill="#A90909"/>
<path d="M2.46497 33.6601C2.6447 33.5751 2.83331 33.511 3.02588 33.4645C3.08019 33.8487 3.13647 34.2407 3.31817 34.5903C3.40902 34.9675 3.43766 35.3556 3.47025 35.7417C3.71515 37.5202 3.91759 39.3036 4.1378 41.0851C4.16347 41.406 4.30271 41.7576 4.12496 42.0597C3.16215 42.4863 2.19934 42.9189 1.23356 43.3376C1.12395 43.3484 1.01532 43.3593 0.906699 43.3702C0.813874 43.2961 0.72105 43.222 0.628225 43.1499C0.566012 43.1796 0.4406 43.2398 0.378387 43.2704C0.383325 42.8823 0.50775 42.51 0.597613 42.1368C0.895838 40.698 1.2385 39.2691 1.54364 37.8323C1.5229 37.6861 1.66115 37.6041 1.77471 37.6742C1.74015 37.4955 1.64535 37.3118 1.71349 37.1301C1.94061 35.9679 2.22699 34.8194 2.46497 33.6601Z" fill="#AF0501"/>
<path d="M24.0241 34.0235C24.3865 33.9405 24.8407 33.9642 25.0501 33.5988C25.135 33.589 25.2051 33.746 25.3118 33.7302C25.9714 33.664 26.6271 33.82 27.2868 33.7519C27.6018 33.7341 27.9198 33.6393 28.2338 33.7203C28.4994 33.7914 28.7739 33.7618 29.0425 33.7262C26.4 35.4079 23.7288 37.0452 21.0843 38.7249C17.1787 41.1463 13.287 43.5904 9.39524 46.0324L9.36365 46.0532C9.30045 45.5032 9.15824 44.9689 9.04073 44.4307C8.72868 43.0492 8.42552 41.6667 8.12038 40.2842C8.8146 39.9475 9.53251 39.6631 10.2297 39.3333C11.7613 38.6647 13.288 37.9814 14.8127 37.296C15.1573 37.1262 15.5148 36.982 15.8861 36.8803C15.8861 37.2555 15.8861 37.6308 15.8841 38.007C18.816 37.8046 21.58 36.2888 23.4701 34.06C23.4553 34.2002 23.4345 34.3414 23.4039 34.4797C23.5323 34.4994 23.6607 34.5192 23.789 34.5399C23.8157 34.4185 23.8434 34.299 23.871 34.1785C23.949 34.2101 24.028 34.2417 24.107 34.2733C24.3095 34.2131 24.5119 34.1558 24.7153 34.1015C24.4842 34.0778 24.2542 34.0511 24.0241 34.0235Z" fill="#39393B"/>
<path d="M24.0981 38.2559C24.1515 38.3438 24.2038 38.4317 24.2591 38.5215C19.688 41.7892 15.1139 45.0499 10.5447 48.3185C10.364 48.4568 10.1744 48.5822 9.97096 48.6839C9.7942 47.7961 9.573 46.9192 9.39525 46.0325C13.287 43.5904 17.1787 41.1463 21.0843 38.725C21.8921 38.7151 22.7018 38.6795 23.5096 38.7329C23.795 38.7437 23.9391 38.4425 24.0981 38.2559Z" fill="#696969"/>
<path d="M4.24346 42.0124C5.54301 41.4544 6.83368 40.8728 8.12039 40.2842C8.42553 41.6667 8.72869 43.0492 9.04074 44.4308C9.15825 44.9689 9.30045 45.5032 9.36365 46.0532C7.92486 46.9153 6.53644 47.8653 5.07592 48.6889C4.81424 46.462 4.53379 44.2362 4.24346 42.0124Z" fill="#686868"/>
<path d="M0.378386 43.2704C0.440599 43.2398 0.566011 43.1796 0.628224 43.1499C0.721049 43.222 0.813873 43.2961 0.906698 43.3701C1.01532 43.3593 1.12395 43.3484 1.23356 43.3376C0.96891 43.4689 0.70426 43.6042 0.421835 43.694C0.240135 43.7187 0.327037 43.4205 0.287537 43.3148C0.310249 43.304 0.355674 43.2813 0.378386 43.2704Z" fill="#9A1919"/>
<path d="M13.5615 47.095C13.7876 46.9321 14.1362 46.6131 14.3387 46.9864C14.2686 47.2313 14.0414 47.3547 13.8499 47.4959C13.7541 47.3616 13.6573 47.2273 13.5615 47.095Z" fill="#F8F8F8"/>
</g>
<defs>
<clipPath id="clip0_1_2577">
<rect width="44" height="49.5" fill="white"/>
</clipPath>
</defs>
</svg>
