<svg width="24" height="25" viewBox="0 0 24 25" fill="none" xmlns="http://www.w3.org/2000/svg">
<path d="M13 2.11719C14.5524 2.11713 16.0444 2.71875 17.1625 3.79565C18.2806 4.87255 18.9378 6.3409 18.996 7.89219L19 8.11719V16.1172C19.0001 17.6696 18.3984 19.1615 17.3215 20.2797C16.2446 21.3978 14.7763 22.055 13.225 22.1132L13 22.1172H11C9.44762 22.1172 7.95564 21.5156 6.83753 20.4387C5.71942 19.3618 5.06221 17.8935 5.004 16.3422L5 16.1172V8.11719C4.99994 6.56481 5.60157 5.07283 6.67847 3.95472C7.75536 2.8366 9.22371 2.1794 10.775 2.12119L11 2.11719H13ZM13 4.11719H11C9.97376 4.11719 8.98677 4.51162 8.24319 5.21891C7.4996 5.9262 7.05631 6.89223 7.005 7.91719L7 8.11719V16.1172C7 17.1434 7.39444 18.1304 8.10172 18.874C8.80901 19.6176 9.77504 20.0609 10.8 20.1122L11 20.1172H13C14.0262 20.1172 15.0132 19.7228 15.7568 19.0155C16.5004 18.3082 16.9437 17.3421 16.995 16.3172L17 16.1172V8.11719C17 7.09095 16.6056 6.10396 15.8983 5.36038C15.191 4.61679 14.225 4.1735 13.2 4.12219L13 4.11719ZM12 6.11719C12.2449 6.11722 12.4813 6.20714 12.6644 6.3699C12.8474 6.53266 12.9643 6.75694 12.993 7.00019L13 7.11719V11.1172C12.9997 11.3721 12.9021 11.6172 12.7272 11.8026C12.5522 11.9879 12.313 12.0994 12.0586 12.1144C11.8042 12.1293 11.5536 12.0465 11.3582 11.8829C11.1627 11.7193 11.0371 11.4873 11.007 11.2342L11 11.1172V7.11719C11 6.85197 11.1054 6.59762 11.2929 6.41008C11.4804 6.22254 11.7348 6.11719 12 6.11719Z" fill="white"/>
</svg>
