<svg width="24" height="25" viewBox="0 0 24 25" fill="none" xmlns="http://www.w3.org/2000/svg">
<g clip-path="url(#clip0_1_115)">
<path d="M13 2.11279C14.5524 2.11274 16.0444 2.71436 17.1625 3.79126C18.2806 4.86816 18.9378 6.3365 18.996 7.88779L19 8.11279V16.1128C19.0001 17.6652 18.3984 19.1572 17.3215 20.2753C16.2446 21.3934 14.7763 22.0506 13.225 22.1088L13 22.1128H11C9.44762 22.1129 7.95564 21.5112 6.83753 20.4343C5.71942 19.3574 5.06221 17.8891 5.004 16.3378L5 16.1128V8.11279C4.99994 6.56041 5.60157 5.06843 6.67847 3.95032C7.75536 2.83221 9.22371 2.17501 10.775 2.11679L11 2.11279H13ZM13 4.11279H11C9.97376 4.11279 8.98677 4.50723 8.24319 5.21452C7.4996 5.92181 7.05631 6.88783 7.005 7.91279L7 8.11279V16.1128C7 17.139 7.39444 18.126 8.10172 18.8696C8.80901 19.6132 9.77504 20.0565 10.8 20.1078L11 20.1128H13C14.0262 20.1128 15.0132 19.7184 15.7568 19.0111C16.5004 18.3038 16.9437 17.3378 16.995 16.3128L17 16.1128V8.11279C17 7.08655 16.6056 6.09957 15.8983 5.35598C15.191 4.6124 14.225 4.16911 13.2 4.11779L13 4.11279ZM12 6.11279C12.2449 6.11283 12.4813 6.20275 12.6644 6.36551C12.8474 6.52827 12.9643 6.75254 12.993 6.99579L13 7.11279V11.1128C12.9997 11.3677 12.9021 11.6128 12.7272 11.7982C12.5522 11.9835 12.313 12.095 12.0586 12.11C11.8042 12.1249 11.5536 12.0421 11.3582 11.8785C11.1627 11.7149 11.0371 11.4829 11.007 11.2298L11 11.1128V7.11279C11 6.84758 11.1054 6.59322 11.2929 6.40569C11.4804 6.21815 11.7348 6.11279 12 6.11279Z" fill="black"/>
</g>
<defs>
<clipPath id="clip0_1_115">
<rect width="24" height="24" fill="white" transform="translate(0 0.112793)"/>
</clipPath>
</defs>
</svg>
