<svg width="191" height="64" viewBox="0 0 191 64" fill="none" xmlns="http://www.w3.org/2000/svg">
<rect x="1.29249" y="1.17823" width="188.613" height="61.8142" rx="8.71739" fill="black"/>
<rect x="1.29249" y="1.17823" width="188.613" height="61.8142" rx="8.71739" stroke="#A6A6A6" stroke-width="1.58498"/>
<path d="M28.7201 31.2325L13.3217 47.9449C13.3231 47.9479 13.3231 47.9523 13.3246 47.9553C13.7975 49.77 15.4173 51.1055 17.3408 51.1055C18.1103 51.1055 18.8319 50.8925 19.451 50.5198L19.5001 50.4902L36.8322 40.2631L28.7201 31.2325Z" fill="#EA4335"/>
<path d="M44.2981 28.386L44.2837 28.3757L36.8007 23.9402L28.3704 31.6117L36.831 40.2607L44.2735 35.8697C45.5781 35.1479 46.4646 33.7414 46.4646 32.1205C46.4646 30.5084 45.5911 29.1093 44.2981 28.386Z" fill="#FBBC04"/>
<path d="M13.3215 16.2267C13.2289 16.5757 13.1798 16.9425 13.1798 17.3211V46.8533C13.1798 47.2319 13.2289 47.5987 13.3229 47.9463L29.2493 31.6613L13.3215 16.2267Z" fill="#4285F4"/>
<path d="M28.834 32.0859L36.803 23.9383L19.4912 13.6742C18.862 13.2882 18.1273 13.0663 17.342 13.0663C15.4185 13.0663 13.7957 14.4048 13.3228 16.221C13.3228 16.2224 13.3214 16.2239 13.3214 16.2254L28.834 32.0859Z" fill="#34A853"/>
<path d="M69.621 18.947C69.621 20.532 69.1508 21.7947 68.2104 22.7351C67.1537 23.8552 65.7642 24.4152 64.0419 24.4152C62.3935 24.4152 60.9987 23.8446 59.8575 22.7034C58.7164 21.5623 58.1458 20.1569 58.1458 18.4874C58.1458 16.8179 58.7164 15.4125 59.8575 14.2713C60.9987 13.1302 62.3935 12.5596 64.0419 12.5596C64.8766 12.5596 65.6639 12.7075 66.4035 13.0034C67.1432 13.2992 67.7507 13.7166 68.2262 14.2555L67.1802 15.3016C66.8315 14.8789 66.3771 14.5514 65.8171 14.3189C65.2676 14.0759 64.6759 13.9544 64.0419 13.9544C62.8056 13.9544 61.7595 14.3823 60.9036 15.2382C60.0583 16.1046 59.6356 17.1877 59.6356 18.4874C59.6356 19.7871 60.0583 20.8702 60.9036 21.7366C61.7595 22.5925 62.8056 23.0204 64.0419 23.0204C65.1725 23.0204 66.1129 22.7034 66.8632 22.0695C67.6134 21.4355 68.0466 20.5637 68.1628 19.4542H64.0419V18.0912H69.5418C69.5946 18.387 69.621 18.6723 69.621 18.947Z" fill="white"/>
<path d="M78.0179 12.8132V14.208H72.8509V17.8059H77.5108V19.1689H72.8509V22.7668H78.0179V24.1616H71.3927V12.8132H78.0179Z" fill="white"/>
<path d="M83.8505 14.208V24.1616H82.3924V14.208H79.2224V12.8132H87.0205V14.208H83.8505Z" fill="white"/>
<path d="M93.4835 24.1616H92.0253V12.8132H93.4835V24.1616Z" fill="white"/>
<path d="M99.6384 14.208V24.1616H98.1803V14.208H95.0103V12.8132H102.808V14.208H99.6384Z" fill="white"/>
<path d="M118.614 18.4874C118.614 20.1675 118.054 21.5728 116.934 22.7034C115.804 23.8446 114.419 24.4152 112.782 24.4152C111.133 24.4152 109.749 23.8446 108.629 22.7034C107.509 21.5728 106.949 20.1675 106.949 18.4874C106.949 16.8073 107.509 15.402 108.629 14.2713C109.749 13.1302 111.133 12.5596 112.782 12.5596C114.43 12.5596 115.814 13.1354 116.934 14.2872C118.054 15.4178 118.614 16.8179 118.614 18.4874ZM108.439 18.4874C108.439 19.7976 108.851 20.8807 109.675 21.7366C110.51 22.5925 111.545 23.0204 112.782 23.0204C114.018 23.0204 115.048 22.5925 115.872 21.7366C116.707 20.8913 117.124 19.8082 117.124 18.4874C117.124 17.1666 116.707 16.0835 115.872 15.2382C115.048 14.3823 114.018 13.9544 112.782 13.9544C111.545 13.9544 110.51 14.3823 109.675 15.2382C108.851 16.0941 108.439 17.1771 108.439 18.4874Z" fill="white"/>
<path d="M121.793 24.1616H120.335V12.8132H122.11L127.626 21.6415H127.689L127.626 19.4542V12.8132H129.084V24.1616H127.563L121.793 14.9053H121.73L121.793 17.0926V24.1616Z" fill="white"/>
<path d="M148.724 50.1706H151.306V32.7176H148.724V50.1706ZM171.977 39.0044L169.018 46.5714H168.929L165.858 39.0044H163.077L167.683 49.58L165.058 55.4633H167.749L174.848 39.0044H171.977ZM157.337 48.1881C156.49 48.1881 155.311 47.7623 155.311 46.7054C155.311 45.3595 156.779 44.843 158.048 44.843C159.182 44.843 159.718 45.0901 160.407 45.4266C160.206 47.0433 158.827 48.1881 157.337 48.1881ZM157.648 38.6232C155.779 38.6232 153.842 39.4539 153.042 41.2954L155.333 42.2601C155.823 41.2954 156.735 40.9799 157.692 40.9799C159.027 40.9799 160.385 41.7882 160.407 43.2262V43.405C159.939 43.1355 158.939 42.732 157.714 42.732C155.245 42.732 152.73 44.1016 152.73 46.6607C152.73 48.9965 154.755 50.5015 157.024 50.5015C158.76 50.5015 159.718 49.7155 160.318 48.794H160.407V50.1413H162.898V43.4496C162.898 40.3516 160.607 38.6232 157.648 38.6232ZM141.693 41.1293H138.022V35.1468H141.693C143.623 35.1468 144.719 36.7594 144.719 38.1374C144.719 39.4902 143.623 41.1293 141.693 41.1293ZM141.627 32.7176H135.441V50.1706H138.022V43.5585H141.627C144.488 43.5585 147.301 41.4671 147.301 38.1374C147.301 34.8076 144.488 32.7176 141.627 32.7176ZM107.896 48.1909C106.112 48.1909 104.619 46.6845 104.619 44.6154C104.619 42.524 106.112 40.9938 107.896 40.9938C109.657 40.9938 111.038 42.524 111.038 44.6154C111.038 46.6845 109.657 48.1909 107.896 48.1909ZM110.86 39.9816H110.771C110.191 39.285 109.077 38.6553 107.673 38.6553C104.73 38.6553 102.034 41.2633 102.034 44.6154C102.034 47.9438 104.73 50.5308 107.673 50.5308C109.077 50.5308 110.191 49.9012 110.771 49.1807H110.86V50.0366C110.86 52.3081 109.657 53.5227 107.717 53.5227C106.134 53.5227 105.153 52.3751 104.752 51.4076L102.501 52.3528C103.147 53.9276 104.864 55.8612 107.717 55.8612C110.748 55.8612 113.312 54.0616 113.312 49.6764V39.0141H110.86V39.9816ZM115.095 50.1706H117.681V32.7162H115.095V50.1706ZM121.491 44.413C121.425 42.1191 123.253 40.9492 124.567 40.9492C125.593 40.9492 126.462 41.4657 126.751 42.2085L121.491 44.413ZM129.516 42.4333C129.026 41.1069 127.532 38.6553 124.478 38.6553C121.447 38.6553 118.929 41.0609 118.929 44.5931C118.929 47.9214 121.425 50.5308 124.768 50.5308C127.465 50.5308 129.026 48.8666 129.672 47.8991L127.666 46.549C126.998 47.5389 126.083 48.1909 124.768 48.1909C123.453 48.1909 122.517 47.5836 121.915 46.3927L129.783 43.1076L129.516 42.4333ZM66.8316 40.4773V42.9959H72.8042C72.6258 44.413 72.1581 45.4475 71.4456 46.1665C70.5754 47.0447 69.2154 48.0122 66.8316 48.0122C63.1529 48.0122 60.2779 45.0203 60.2779 41.3094C60.2779 37.5971 63.1529 34.6065 66.8316 34.6065C68.8156 34.6065 70.2641 35.394 71.3336 36.4062L73.0948 34.6289C71.6006 33.1895 69.618 32.0865 66.8316 32.0865C61.7942 32.0865 57.5593 36.2261 57.5593 41.3094C57.5593 46.3927 61.7942 50.5308 66.8316 50.5308C69.5502 50.5308 71.6006 49.6303 73.2055 47.9438C74.856 46.2796 75.3679 43.9411 75.3679 42.0507C75.3679 41.4657 75.3236 40.9268 75.2337 40.4773H66.8316ZM82.1595 48.1909C80.3762 48.1909 78.8377 46.7068 78.8377 44.5931C78.8377 42.4556 80.3762 40.9938 82.1595 40.9938C83.9415 40.9938 85.48 42.4556 85.48 44.5931C85.48 46.7068 83.9415 48.1909 82.1595 48.1909ZM82.1595 38.6553C78.9041 38.6553 76.2519 41.1516 76.2519 44.5931C76.2519 48.0122 78.9041 50.5308 82.1595 50.5308C85.4135 50.5308 88.0657 48.0122 88.0657 44.5931C88.0657 41.1516 85.4135 38.6553 82.1595 38.6553ZM95.0442 48.1909C93.2608 48.1909 91.7224 46.7068 91.7224 44.5931C91.7224 42.4556 93.2608 40.9938 95.0442 40.9938C96.8275 40.9938 98.3646 42.4556 98.3646 44.5931C98.3646 46.7068 96.8275 48.1909 95.0442 48.1909ZM95.0442 38.6553C91.7902 38.6553 89.138 41.1516 89.138 44.5931C89.138 48.0122 91.7902 50.5308 95.0442 50.5308C98.2982 50.5308 100.95 48.0122 100.95 44.5931C100.95 41.1516 98.2982 38.6553 95.0442 38.6553Z" fill="white"/>
</svg>
