<svg width="103" height="105" viewBox="0 0 103 105" fill="none" xmlns="http://www.w3.org/2000/svg">
<g clip-path="url(#clip0_1_1443)">
<path fill-rule="evenodd" clip-rule="evenodd" d="M96.3169 39.4596L90.6981 36.3847L86.9636 34.3461L78.7666 29.8665C76.985 28.89 75.5203 27.4339 74.5525 25.6523L70.0728 17.4553L68.0343 13.7209L64.9593 8.10203C62.3298 3.29689 57.4904 0.418945 52.0086 0.418945C46.5268 0.418945 41.6874 3.28832 39.0578 8.10203L35.9829 13.7209L33.8757 17.541L29.4475 25.6438C28.4711 27.4254 27.015 28.8815 25.2334 29.8579L17.0364 34.3376L13.3191 36.3847L7.70021 39.4596C2.86938 42.0977 0 46.9371 0 52.4189C0 57.9007 2.86938 62.7401 7.68308 65.3697L13.3019 68.4446L14.4925 64.359L9.67024 61.7209C6.21841 59.8279 4.15418 56.3504 4.15418 52.4104C4.15418 48.4703 6.21841 44.9928 9.67024 43.0999L14.4925 40.4618L18.2099 38.4232L27.2034 33.5067C29.6874 32.1534 31.7173 30.1234 33.0707 27.6395L37.9871 18.6459L40.06 14.9115L42.6981 10.0892H42.6895C44.5824 6.63736 48.06 4.57312 52 4.57312C55.94 4.57312 59.4176 6.63736 61.3105 10.0892L63.9486 14.9115L65.97 18.6459L70.8865 27.6395C72.2398 30.1234 74.2698 32.1534 76.7537 33.5067L85.7473 38.4232L82.8694 48.2648C82.0728 50.98 82.0728 53.8494 82.8694 56.5646H82.8779L85.7559 66.4061L76.7623 71.3226C74.2784 72.6845 72.2484 74.7059 70.8951 77.1898L65.9786 86.1834L70.0642 87.3825L74.5439 79.1855C75.5203 77.404 76.9764 75.9479 78.758 74.9714L86.955 70.4918L90.6895 68.4446L96.3083 65.3697C101.113 62.7401 103.991 57.9007 103.991 52.4189C103.991 46.9371 101.122 42.0977 96.3083 39.4682L96.3169 39.4596ZM39.0407 96.7273L35.9657 91.1085L40.0428 89.9179L42.6809 94.7402C44.5739 98.192 48.0514 100.256 51.9914 100.256C55.9315 100.256 59.409 98.192 61.3019 94.7402L63.94 89.9179L68.0171 91.1085L64.9422 96.7273C62.3126 101.541 57.4732 104.41 51.9914 104.41C46.5096 104.41 41.6702 101.532 39.0407 96.7273ZM17.0278 70.4832L18.2099 66.4061L27.2034 71.3226C29.6788 72.6759 31.7088 74.7059 33.0707 77.1898L37.9871 86.1834L33.9186 87.374L29.439 79.177C28.4625 77.3954 27.0064 75.9393 25.2248 74.9628L17.0278 70.4832ZM94.3212 61.7209L89.4989 64.359L86.8694 55.3911C86.2955 53.4382 86.2955 51.374 86.8694 49.4297L89.4989 40.4618L94.3212 43.0999C97.773 44.9928 99.8373 48.4703 99.8373 52.4104C99.8373 56.3504 97.773 59.8279 94.3212 61.7209Z" fill="black"/>
<path d="M90.6981 36.3847L92.4968 30.2348C94.0385 24.9757 92.6424 19.5196 88.7709 15.6481C84.8994 11.7765 79.4433 10.3804 74.1842 11.9222L68.0343 13.7209L70.0728 17.4553L75.349 15.9136L75.3405 15.905C79.1178 14.8001 83.0407 15.8022 85.8244 18.586C88.6081 21.3697 89.6103 25.2926 88.5054 29.0699L86.9636 34.3461L90.6981 36.3847Z" fill="#A10501"/>
<path d="M37.9871 18.6459L47.8287 21.5239C50.5439 22.3204 53.4133 22.3204 56.1285 21.5239L65.97 18.6459L63.9486 14.9115L54.9893 17.541C53.0364 18.1149 50.9722 18.1149 49.0278 17.541L40.06 14.9115L37.9871 18.6459Z" fill="#A10501"/>
<path d="M35.9829 13.7209L29.833 11.9222C24.5739 10.3804 19.1178 11.7765 15.2463 15.6481C11.3747 19.5282 9.97859 24.9757 11.5203 30.2348L13.3191 36.3847L17.0364 34.3376L15.4946 29.0613L15.4861 29.0699C14.3812 25.2926 15.3833 21.3697 18.167 18.586C20.9507 15.8022 24.8737 14.8001 28.651 15.905L33.9272 17.4468L33.8757 17.541L35.9829 13.7209Z" fill="#A10501"/>
<path d="M13.3019 68.4446L11.5032 74.5945C9.96146 79.8536 11.3576 85.3097 15.2291 89.1813C19.1092 93.0528 24.5567 94.4489 29.8158 92.9072L35.9657 91.1085L40.0428 89.9179L49.0107 87.2883C50.9636 86.7144 53.0278 86.7144 54.9722 87.2883L63.94 89.9179L68.0171 91.1085L74.167 92.9072C75.5803 93.3183 77.0021 93.5239 78.4069 93.5239C82.2441 93.5239 85.9272 92.0164 88.7623 89.1813C92.6424 85.3012 94.03 79.8536 92.4882 74.5945L90.6895 68.4446L86.955 70.4918L88.4968 75.768L88.5054 75.7594C89.6103 79.5367 88.6081 83.4596 85.8244 86.2433C83.0407 89.0271 79.1178 90.0292 75.3405 88.9243L70.0642 87.3825L65.9786 86.1834L56.137 83.3055C54.7752 82.9114 53.379 82.7059 51.9829 82.7059C50.5867 82.7059 49.1906 82.9029 47.8287 83.3055L37.9871 86.1834L33.9186 87.374L28.6424 88.9157L28.651 88.9243C24.8737 90.0292 20.9507 89.0271 18.167 86.2433C15.3833 83.4596 14.3812 79.5367 15.4861 75.7594L17.0278 70.4832L18.2099 66.4061L21.0878 56.5646C21.8844 53.8494 21.8844 50.98 21.0878 48.2648L18.2099 38.4232L14.4925 40.4618L17.1221 49.4297C17.6959 51.3825 17.6959 53.4468 17.1221 55.3911L14.4925 64.359L13.3019 68.4446Z" fill="#A10501"/>
</g>
<defs>
<clipPath id="clip0_1_1443">
<rect width="104" height="104" fill="white" transform="translate(0 0.418945)"/>
</clipPath>
</defs>
</svg>
