<svg width="99" height="100" viewBox="0 0 99 100" fill="none" xmlns="http://www.w3.org/2000/svg">
<g clip-path="url(#clip0_1_1433)">
<path fill-rule="evenodd" clip-rule="evenodd" d="M63.2639 94.3036C63.2592 94.3063 63.2544 94.309 63.2496 94.3117L63.2568 94.3045C63.2607 94.3033 63.2649 94.302 63.2688 94.3008C63.2672 94.3017 63.2656 94.3026 63.2639 94.3036Z" fill="black"/>
<path fill-rule="evenodd" clip-rule="evenodd" d="M0 49.9189C0 22.6226 22.2036 0.418945 49.5 0.418945C76.7964 0.418945 99 22.6226 99 49.9189C99 77.2153 76.7964 99.4189 49.5 99.4189C22.2036 99.4189 0 77.2153 0 49.9189ZM75.7677 29.722C75.7677 37.2922 72.544 44.1235 67.4006 48.9265L69.6173 50.9911C75.2678 45.6448 78.803 38.0818 78.803 29.7075C78.803 20.8912 74.8839 12.966 68.7045 7.59076C84.7795 14.9147 95.9791 31.1273 95.9791 49.9117C95.9791 70.749 82.1991 88.422 63.2688 94.3008L63.2639 94.3036L63.2496 94.3117C61.833 95.1198 55.6801 96.5637 49.5 96.5754C43.529 96.5868 37.5325 95.1951 35.7576 94.319C16.8212 88.4367 3.0281 70.7607 3.0281 49.9189C3.0281 31.1346 14.2277 14.9219 30.3027 7.598C24.1161 12.9732 20.2042 20.8985 20.2042 29.7147C20.2042 38.531 23.7322 45.6521 29.3899 50.9983L31.585 48.9265C26.4415 44.1308 23.2178 37.2922 23.2178 29.722C23.2178 15.2334 35.0042 3.45429 49.4855 3.45429C63.9668 3.45429 75.7532 15.2407 75.7532 29.722H75.7677Z" fill="black"/>
<path d="M67.4006 48.9265C62.5614 44.848 56.3168 42.3849 49.4928 42.3849C42.6687 42.3849 36.4241 44.848 31.585 48.9265L29.3899 50.9983C24.6377 55.9824 21.7255 62.734 21.7255 70.1666C21.7255 80.5114 27.376 89.5305 35.7576 94.319C37.5325 95.1951 43.529 96.5868 49.5 96.5754C55.6801 96.5637 61.833 95.1198 63.2496 94.3117L63.2568 94.3045L63.2688 94.3008C71.6398 89.5168 77.2817 80.4963 77.2817 70.1594C77.2817 62.7268 74.3623 55.9824 69.6173 50.9911L67.4006 48.9265Z" fill="#A10501"/>
</g>
<defs>
<clipPath id="clip0_1_1433">
<rect width="99" height="99" fill="white" transform="translate(0 0.418945)"/>
</clipPath>
</defs>
</svg>
