<svg width="192" height="164" viewBox="0 0 192 164" fill="none" xmlns="http://www.w3.org/2000/svg">
<g clip-path="url(#clip0_1_2173)">
<path d="M144.208 23.5193C145.177 23.4287 146.04 23.9642 146.809 24.4898C171.34 41.5316 195.896 58.5359 220.425 75.5729C221.771 76.363 222.425 78.0242 221.982 79.5188C218.205 98.9281 214.441 118.34 210.659 137.752C207.514 153.975 200.442 169.422 190.147 182.357C176.575 199.562 157.374 212.216 136.216 217.914C126.939 220.392 117.637 222.764 108.359 225.221C107.043 225.624 105.486 225.892 104.327 224.94C97.1869 219.643 90.054 214.33 82.9195 209.025C75.8251 203.906 69.2999 197.988 63.6762 191.283C53.5412 179.279 46.2031 164.932 42.4134 149.682C38.6671 134.795 38.3548 119.071 41.397 104.029C45.0358 85.286 48.6909 66.5462 52.3207 47.8057C52.5731 46.6376 52.6448 45.2906 53.5921 44.4392C54.5675 43.4877 56.0107 43.4554 57.2538 43.1265C84.5871 36.9474 111.919 30.7554 139.253 24.5722C140.907 24.2386 142.53 23.7384 144.208 23.5193ZM138.625 38.3257C115.508 43.5576 92.3868 48.7887 69.2656 54.0198C68.1442 54.2879 66.9929 54.4487 65.9081 54.8549C64.7633 55.3086 64.0926 56.4758 63.9314 57.6532C61.0605 72.4669 58.1775 87.2782 55.2985 102.09C54.5412 106.03 53.6967 109.961 53.2424 113.952C51.4018 129.097 53.5213 144.698 59.3252 158.806C65.7998 174.768 77.0541 188.667 91.1207 198.578C95.3632 201.736 99.6065 204.889 103.849 208.047C105.368 209.145 106.792 210.386 108.473 211.241C109.413 211.191 110.354 211.065 111.263 210.806C118.479 208.883 125.716 207.052 132.926 205.115C146.979 201.291 160.07 193.996 170.691 184.036C183.715 171.914 193.018 155.845 196.973 138.499C200.479 120.719 203.892 102.921 207.37 85.1358C207.784 83.7455 207.01 82.2891 205.842 81.538C185.171 67.1823 164.483 52.8486 143.807 38.5003C143.3 38.1735 142.739 37.9462 142.195 37.7051C140.983 37.7825 139.796 38.0208 138.625 38.3257Z" fill="url(#paint0_linear_1_2173)"/>
<path d="M138.626 38.3258C139.796 38.0208 140.984 37.7825 142.195 37.7051C130.968 95.5557 119.704 153.395 108.474 211.241C106.793 210.386 105.369 209.145 103.849 208.047C99.6069 204.889 95.3636 201.736 91.1212 198.578C77.0545 188.667 65.8002 174.768 59.3256 158.806C53.5218 144.699 51.4022 129.097 53.2428 113.952C53.6972 109.961 54.5416 106.03 55.2989 102.09C58.1779 87.2782 61.061 72.4669 63.9318 57.6533C64.0931 56.4758 64.7637 55.3087 65.9085 54.8549C66.9934 54.4487 68.1447 54.2879 69.2661 54.0198C92.3873 48.7887 115.508 43.5577 138.626 38.3258Z" fill="#D02222"/>
<path d="M142.195 37.7051C142.74 37.9462 143.3 38.1735 143.807 38.5002C164.483 52.8486 185.171 67.1822 205.842 81.5379C207.011 82.2891 207.784 83.7455 207.37 85.1358C203.892 102.921 200.479 120.719 196.973 138.499C193.018 155.845 183.715 171.914 170.692 184.036C160.07 193.996 146.979 201.291 132.927 205.115C125.716 207.052 118.479 208.883 111.263 210.806C110.355 211.065 109.413 211.191 108.473 211.241C119.704 153.395 130.967 95.5556 142.195 37.7051Z" fill="#A10501"/>
</g>
<defs>
<linearGradient id="paint0_linear_1_2173" x1="53.3521" y1="42.4822" x2="197.292" y2="206.628" gradientUnits="userSpaceOnUse">
<stop stop-color="#B71D1D"/>
<stop offset="1" stop-color="#280000"/>
</linearGradient>
<clipPath id="clip0_1_2173">
<rect width="212.42" height="212.42" fill="white" transform="translate(41.3226 0.0390625) rotate(10.9993)"/>
</clipPath>
</defs>
</svg>
