<svg width="48" height="49" viewBox="0 0 48 49" fill="none" xmlns="http://www.w3.org/2000/svg">
<rect x="0.125488" y="0.5625" width="47.8745" height="47.8745" rx="23.9373" fill="white" fill-opacity="0.05"/>
<g clip-path="url(#clip0_1_2567)">
<path d="M24.0628 15.167C25.0603 15.167 26.0835 15.1927 27.0751 15.2347L28.2465 15.2907L29.3676 15.3572L30.4176 15.4283L31.3766 15.503C32.4173 15.5826 33.3966 16.0268 34.1422 16.7572C34.8878 17.4876 35.3519 18.4576 35.453 19.4965L35.4996 19.9923L35.5871 21.054C35.6688 22.1542 35.7295 23.3535 35.7295 24.5003C35.7295 25.6472 35.6688 26.8465 35.5871 27.9467L35.4996 29.0083C35.4845 29.1787 35.4693 29.3432 35.453 29.5042C35.3519 30.5432 34.8876 31.5133 34.1418 32.2438C33.396 32.9743 32.4164 33.4183 31.3755 33.4977L30.4188 33.5712L29.3688 33.6435L28.2465 33.71L27.0751 33.766C26.0716 33.8096 25.0673 33.8322 24.0628 33.8337C23.0583 33.8322 22.054 33.8096 21.0505 33.766L19.8791 33.71L18.758 33.6435L17.708 33.5712L16.749 33.4977C15.7082 33.418 14.7289 32.9739 13.9833 32.2434C13.2377 31.513 12.7736 30.543 12.6726 29.5042L12.626 29.0083L12.5385 27.9467C12.4492 26.8 12.4018 25.6504 12.3961 24.5003C12.3961 23.3535 12.4568 22.1542 12.5385 21.054L12.626 19.9923C12.6411 19.822 12.6563 19.6575 12.6726 19.4965C12.7736 18.4578 13.2375 17.488 13.9829 16.7576C14.7282 16.0271 15.7073 15.5829 16.7478 15.503L17.7056 15.4283L18.7556 15.3572L19.878 15.2907L21.0493 15.2347C22.0532 15.1911 23.0579 15.1685 24.0628 15.167ZM24.0628 17.5003C23.1003 17.5003 22.1098 17.526 21.1461 17.5657L20.0051 17.6205L18.9096 17.6847L17.8806 17.7547L16.938 17.8282C16.4425 17.8633 15.9755 18.0727 15.6197 18.4193C15.264 18.7659 15.0424 19.2273 14.9943 19.7217C14.8578 21.1322 14.7295 22.888 14.7295 24.5003C14.7295 26.1127 14.8578 27.8685 14.9943 29.279C15.0935 30.2963 15.9008 31.0873 16.938 31.1725L17.8806 31.2448L18.9096 31.3148L20.0051 31.3802L21.1461 31.435C22.1098 31.4747 23.1003 31.5003 24.0628 31.5003C25.0253 31.5003 26.0158 31.4747 26.9795 31.435L28.1205 31.3802L29.216 31.316L30.245 31.246L31.1876 31.1725C31.6831 31.1373 32.1501 30.9279 32.5058 30.5813C32.8616 30.2347 33.0832 29.7734 33.1313 29.279C33.2678 27.8685 33.3961 26.1127 33.3961 24.5003C33.3961 22.888 33.2678 21.1322 33.1313 19.7217C33.0832 19.2273 32.8616 18.7659 32.5058 18.4193C32.1501 18.0727 31.6831 17.8633 31.1876 17.8282L30.245 17.7558L29.216 17.6858L28.1205 17.6205L26.9795 17.5657C26.0078 17.5239 25.0354 17.5021 24.0628 17.5003ZM21.7295 21.6712C21.7294 21.5571 21.7572 21.4448 21.8104 21.344C21.8636 21.2431 21.9407 21.1568 22.0348 21.0925C22.129 21.0283 22.2375 20.9879 22.3508 20.9751C22.4641 20.9623 22.5788 20.9774 22.685 21.019L22.7795 21.0657L27.6795 23.8937C27.777 23.95 27.8596 24.029 27.9201 24.124C27.9806 24.219 28.0173 24.3273 28.027 24.4395C28.0367 24.5517 28.0192 24.6646 27.976 24.7687C27.9328 24.8727 27.865 24.9647 27.7786 25.037L27.6795 25.107L22.7795 27.9362C22.6807 27.9933 22.5695 28.0255 22.4555 28.0299C22.3414 28.0342 22.2281 28.0107 22.1253 27.9612C22.0224 27.9118 21.9332 27.8379 21.8655 27.7461C21.7977 27.6543 21.7534 27.5473 21.7365 27.4345L21.7295 27.3295V21.6712Z" fill="black"/>
</g>
<defs>
<clipPath id="clip0_1_2567">
<rect width="28" height="28" fill="white" transform="translate(10.0627 10.5)"/>
</clipPath>
</defs>
</svg>
